<?xml version="1.0" encoding="UTF-8"?>
<svg id="Layer_1" xmlns="http://www.w3.org/2000/svg" version="1.1" xmlns:xlink="http://www.w3.org/1999/xlink" viewBox="0 0 1169.8 741.8">
  <!-- Generator: Adobe Illustrator 29.3.1, SVG Export Plug-In . SVG Version: 2.1.0 Build 151)  -->
  <defs>
    <style>
      .st0 {
        fill: #ff8e7b;
      }

      .st1 {
        fill: #6a0872;
      }

      .st2 {
        fill: #5e5e5e;
      }

      .st3, .st4, .st5, .st6 {
        fill: none;
        stroke-miterlimit: 10;
      }

      .st3, .st4, .st6 {
        stroke: #fff;
      }

      .st7 {
        fill: #262626;
      }

      .st8 {
        fill: #47c947;
      }

      .st9 {
        fill: #ffe000;
      }

      .st10 {
        fill: #fce8d0;
      }

      .st11 {
        fill: #212121;
      }

      .st12 {
        fill: #50a0ff;
      }

      .st13 {
        fill: #e4ffa9;
      }

      .st14 {
        fill: #e8d4ff;
      }

      .st15 {
        fill: #ddd;
      }

      .st16 {
        fill: #6992ed;
      }

      .st17 {
        fill: #ffb600;
      }

      .st4 {
        stroke-dasharray: 16.9;
        stroke-width: 2.8px;
      }

      .st5 {
        stroke: #5e5e5e;
      }

      .st6 {
        stroke-dasharray: 12.1;
        stroke-width: 3.1px;
      }
    </style>
  </defs>
  <g id="Layer_4">
    <g id="Map-2">
      <rect class="st10" y="0" width="1169.8" height="741.7"/>
      <rect class="st15" x="940" y="0" width="229.7" height="741.7"/>
      <g>
        <rect class="st2" x="100.5" y="0" width="304.7" height="741.7"/>
        <rect class="st2" x="511.2" y="0" width="94.9" height="741.7"/>
        <polygon class="st2" points="948.1 129.4 809 129.4 809 0 712.8 0 712.8 129.4 712.8 488.9 712.6 741.8 808.8 741.8 809 467.1 948.1 467.1 948.1 129.4"/>
      </g>
      <g>
        <g>
          <line class="st5" x1="415.3" y1="2.1" x2="415.2" y2="739.1"/>
          <line class="st5" x1="453.5" y1="2.1" x2="453.4" y2="739.1"/>
        </g>
        <line class="st5" x1="412.7" y1="4.8" x2="456.5" y2="4.8"/>
        <line class="st5" x1="412.7" y1="12.1" x2="456.5" y2="12.1"/>
        <line class="st5" x1="412.7" y1="19.3" x2="456.5" y2="19.3"/>
        <line class="st5" x1="412.7" y1="26.6" x2="456.5" y2="26.6"/>
        <line class="st5" x1="412.7" y1="33.9" x2="456.5" y2="33.9"/>
        <line class="st5" x1="412.7" y1="41.1" x2="456.5" y2="41.1"/>
        <line class="st5" x1="412.7" y1="48.3" x2="456.5" y2="48.3"/>
        <line class="st5" x1="412.7" y1="55.6" x2="456.5" y2="55.6"/>
        <line class="st5" x1="412.7" y1="62.8" x2="456.5" y2="62.8"/>
        <line class="st5" x1="412.7" y1="70.1" x2="456.5" y2="70.1"/>
        <line class="st5" x1="412.7" y1="77.3" x2="456.5" y2="77.3"/>
        <line class="st5" x1="412.7" y1="84.5" x2="456.5" y2="84.5"/>
        <line class="st5" x1="412.7" y1="91.9" x2="456.5" y2="91.9"/>
        <line class="st5" x1="412.7" y1="99.1" x2="456.5" y2="99.1"/>
        <line class="st5" x1="412.7" y1="106.3" x2="456.5" y2="106.3"/>
        <line class="st5" x1="412.7" y1="113.6" x2="456.5" y2="113.6"/>
        <line class="st5" x1="412.7" y1="120.8" x2="456.5" y2="120.8"/>
        <line class="st5" x1="412.7" y1="128.1" x2="456.5" y2="128.1"/>
        <line class="st5" x1="412.7" y1="135.3" x2="456.5" y2="135.3"/>
        <line class="st5" x1="412.7" y1="142.5" x2="456.5" y2="142.5"/>
        <line class="st5" x1="412.7" y1="149.8" x2="456.5" y2="149.8"/>
        <line class="st5" x1="412.7" y1="157" x2="456.5" y2="157"/>
        <line class="st5" x1="412.7" y1="164.3" x2="456.5" y2="164.3"/>
        <line class="st5" x1="412.7" y1="171.6" x2="456.5" y2="171.6"/>
        <line class="st5" x1="412.7" y1="178.8" x2="456.5" y2="178.8"/>
        <line class="st5" x1="412.7" y1="186.1" x2="456.5" y2="186.1"/>
        <line class="st5" x1="412.7" y1="193.3" x2="456.5" y2="193.3"/>
        <line class="st5" x1="412.7" y1="200.5" x2="456.5" y2="200.5"/>
        <line class="st5" x1="412.7" y1="207.8" x2="456.5" y2="207.8"/>
        <line class="st5" x1="412.7" y1="215" x2="456.5" y2="215"/>
        <line class="st5" x1="412.7" y1="222.2" x2="456.5" y2="222.2"/>
        <line class="st5" x1="412.7" y1="229.6" x2="456.5" y2="229.6"/>
        <line class="st5" x1="412.7" y1="236.8" x2="456.5" y2="236.8"/>
        <line class="st5" x1="412.7" y1="244" x2="456.5" y2="244"/>
        <line class="st5" x1="412.7" y1="251.3" x2="456.5" y2="251.3"/>
        <line class="st5" x1="412.7" y1="258.5" x2="456.5" y2="258.5"/>
        <line class="st5" x1="412.7" y1="265.7" x2="456.5" y2="265.7"/>
        <line class="st5" x1="412.7" y1="273" x2="456.5" y2="273"/>
        <line class="st5" x1="412.7" y1="280.2" x2="456.5" y2="280.2"/>
        <line class="st5" x1="412.7" y1="287.5" x2="456.5" y2="287.5"/>
        <line class="st5" x1="412.7" y1="294.8" x2="456.5" y2="294.8"/>
        <line class="st5" x1="412.7" y1="302" x2="456.5" y2="302"/>
        <line class="st5" x1="412.7" y1="309.3" x2="456.5" y2="309.3"/>
        <line class="st5" x1="412.7" y1="316.5" x2="456.5" y2="316.5"/>
        <line class="st5" x1="412.7" y1="323.7" x2="456.5" y2="323.7"/>
        <line class="st5" x1="412.7" y1="331" x2="456.5" y2="331"/>
        <line class="st5" x1="412.7" y1="338.2" x2="456.5" y2="338.2"/>
        <line class="st5" x1="412.7" y1="345.5" x2="456.5" y2="345.5"/>
        <line class="st5" x1="412.7" y1="352.7" x2="456.5" y2="352.7"/>
        <line class="st5" x1="412.7" y1="360" x2="456.5" y2="360"/>
        <line class="st5" x1="412.7" y1="367.3" x2="456.5" y2="367.3"/>
        <line class="st5" x1="412.7" y1="374.5" x2="456.5" y2="374.5"/>
        <line class="st5" x1="412.7" y1="381.7" x2="456.5" y2="381.7"/>
        <line class="st5" x1="412.7" y1="389" x2="456.5" y2="389"/>
        <line class="st5" x1="412.7" y1="396.2" x2="456.5" y2="396.2"/>
        <line class="st5" x1="412.7" y1="403.4" x2="456.5" y2="403.4"/>
        <line class="st5" x1="412.7" y1="410.7" x2="456.5" y2="410.7"/>
        <line class="st5" x1="412.7" y1="417.9" x2="456.5" y2="417.9"/>
        <line class="st5" x1="412.7" y1="425.3" x2="456.5" y2="425.3"/>
        <line class="st5" x1="412.7" y1="432.5" x2="456.5" y2="432.5"/>
        <line class="st5" x1="412.7" y1="439.7" x2="456.5" y2="439.7"/>
        <line class="st5" x1="412.7" y1="447" x2="456.5" y2="447"/>
        <line class="st5" x1="412.7" y1="454.2" x2="456.5" y2="454.2"/>
        <line class="st5" x1="412.7" y1="461.4" x2="456.5" y2="461.4"/>
        <line class="st5" x1="412.7" y1="468.7" x2="456.5" y2="468.7"/>
        <line class="st5" x1="412.7" y1="475.9" x2="456.5" y2="475.9"/>
        <line class="st5" x1="412.7" y1="483.1" x2="456.5" y2="483.1"/>
        <line class="st5" x1="412.7" y1="490.4" x2="456.5" y2="490.4"/>
        <line class="st5" x1="412.7" y1="497.7" x2="456.5" y2="497.7"/>
        <line class="st5" x1="412.7" y1="505" x2="456.5" y2="505"/>
        <line class="st5" x1="412.7" y1="512.2" x2="456.5" y2="512.2"/>
        <line class="st5" x1="412.7" y1="519.4" x2="456.5" y2="519.4"/>
        <line class="st5" x1="412.7" y1="526.7" x2="456.5" y2="526.7"/>
        <line class="st5" x1="412.7" y1="533.9" x2="456.5" y2="533.9"/>
        <line class="st5" x1="412.7" y1="541.1" x2="456.5" y2="541.1"/>
        <line class="st5" x1="412.7" y1="548.4" x2="456.5" y2="548.4"/>
        <line class="st5" x1="412.7" y1="555.6" x2="456.5" y2="555.6"/>
        <line class="st5" x1="412.7" y1="563" x2="456.5" y2="563"/>
        <line class="st5" x1="412.7" y1="570.2" x2="456.5" y2="570.2"/>
        <line class="st5" x1="412.7" y1="577.4" x2="456.5" y2="577.4"/>
        <line class="st5" x1="412.7" y1="584.7" x2="456.5" y2="584.7"/>
        <line class="st5" x1="412.7" y1="591.9" x2="456.5" y2="591.9"/>
        <line class="st5" x1="412.7" y1="599.1" x2="456.5" y2="599.1"/>
        <line class="st5" x1="412.7" y1="606.4" x2="456.5" y2="606.4"/>
        <line class="st5" x1="412.7" y1="613.6" x2="456.5" y2="613.6"/>
        <line class="st5" x1="412.7" y1="620.8" x2="456.5" y2="620.8"/>
        <line class="st5" x1="412.7" y1="628.2" x2="456.5" y2="628.2"/>
        <line class="st5" x1="412.7" y1="635.4" x2="456.5" y2="635.4"/>
        <line class="st5" x1="412.7" y1="642.6" x2="456.5" y2="642.6"/>
        <line class="st5" x1="412.7" y1="649.9" x2="456.5" y2="649.9"/>
        <line class="st5" x1="412.7" y1="657.1" x2="456.5" y2="657.1"/>
        <line class="st5" x1="412.7" y1="664.4" x2="456.5" y2="664.4"/>
        <line class="st5" x1="412.7" y1="671.6" x2="456.5" y2="671.6"/>
        <line class="st5" x1="412.7" y1="678.8" x2="456.5" y2="678.8"/>
        <line class="st5" x1="412.7" y1="686.1" x2="456.5" y2="686.1"/>
        <line class="st5" x1="412.7" y1="693.3" x2="456.5" y2="693.3"/>
        <line class="st5" x1="412.7" y1="700.7" x2="456.5" y2="700.7"/>
        <line class="st5" x1="412.7" y1="707.9" x2="456.5" y2="707.9"/>
        <line class="st5" x1="412.7" y1="715.1" x2="456.5" y2="715.1"/>
        <line class="st5" x1="412.7" y1="722.4" x2="456.5" y2="722.4"/>
        <line class="st5" x1="412.7" y1="729.6" x2="456.5" y2="729.6"/>
      </g>
      <g>
        <g>
          <line class="st5" x1="463" y1="2.1" x2="462.9" y2="739.1"/>
          <line class="st5" x1="501.2" y1="2.1" x2="501.1" y2="739.1"/>
        </g>
        <line class="st5" x1="460.4" y1="4.8" x2="504.2" y2="4.8"/>
        <line class="st5" x1="460.4" y1="12.1" x2="504.2" y2="12.1"/>
        <line class="st5" x1="460.4" y1="19.3" x2="504.2" y2="19.3"/>
        <line class="st5" x1="460.4" y1="26.6" x2="504.2" y2="26.6"/>
        <line class="st5" x1="460.4" y1="33.9" x2="504.2" y2="33.9"/>
        <line class="st5" x1="460.4" y1="41.1" x2="504.2" y2="41.1"/>
        <line class="st5" x1="460.4" y1="48.3" x2="504.2" y2="48.3"/>
        <line class="st5" x1="460.4" y1="55.6" x2="504.2" y2="55.6"/>
        <line class="st5" x1="460.4" y1="62.8" x2="504.2" y2="62.8"/>
        <line class="st5" x1="460.4" y1="70.1" x2="504.2" y2="70.1"/>
        <line class="st5" x1="460.4" y1="77.3" x2="504.2" y2="77.3"/>
        <line class="st5" x1="460.4" y1="84.5" x2="504.2" y2="84.5"/>
        <line class="st5" x1="460.4" y1="91.9" x2="504.2" y2="91.9"/>
        <line class="st5" x1="460.4" y1="99.1" x2="504.2" y2="99.1"/>
        <line class="st5" x1="460.4" y1="106.3" x2="504.2" y2="106.3"/>
        <line class="st5" x1="460.4" y1="113.6" x2="504.2" y2="113.6"/>
        <line class="st5" x1="460.4" y1="120.8" x2="504.2" y2="120.8"/>
        <line class="st5" x1="460.4" y1="128.1" x2="504.2" y2="128.1"/>
        <line class="st5" x1="460.4" y1="135.3" x2="504.2" y2="135.3"/>
        <line class="st5" x1="460.4" y1="142.5" x2="504.2" y2="142.5"/>
        <line class="st5" x1="460.4" y1="149.8" x2="504.2" y2="149.8"/>
        <line class="st5" x1="460.4" y1="157" x2="504.2" y2="157"/>
        <line class="st5" x1="460.4" y1="164.3" x2="504.2" y2="164.3"/>
        <line class="st5" x1="460.4" y1="171.6" x2="504.2" y2="171.6"/>
        <line class="st5" x1="460.4" y1="178.8" x2="504.2" y2="178.8"/>
        <line class="st5" x1="460.4" y1="186.1" x2="504.2" y2="186.1"/>
        <line class="st5" x1="460.4" y1="193.3" x2="504.2" y2="193.3"/>
        <line class="st5" x1="460.4" y1="200.5" x2="504.2" y2="200.5"/>
        <line class="st5" x1="460.4" y1="207.8" x2="504.2" y2="207.8"/>
        <line class="st5" x1="460.4" y1="215" x2="504.2" y2="215"/>
        <line class="st5" x1="460.4" y1="222.2" x2="504.2" y2="222.2"/>
        <line class="st5" x1="460.4" y1="229.6" x2="504.2" y2="229.6"/>
        <line class="st5" x1="460.4" y1="236.8" x2="504.2" y2="236.8"/>
        <line class="st5" x1="460.4" y1="244" x2="504.2" y2="244"/>
        <line class="st5" x1="460.4" y1="251.3" x2="504.2" y2="251.3"/>
        <line class="st5" x1="460.4" y1="258.5" x2="504.2" y2="258.5"/>
        <line class="st5" x1="460.4" y1="265.7" x2="504.2" y2="265.7"/>
        <line class="st5" x1="460.4" y1="273" x2="504.2" y2="273"/>
        <line class="st5" x1="460.4" y1="280.2" x2="504.2" y2="280.2"/>
        <line class="st5" x1="460.4" y1="287.5" x2="504.2" y2="287.5"/>
        <line class="st5" x1="460.4" y1="294.8" x2="504.2" y2="294.8"/>
        <line class="st5" x1="460.4" y1="302" x2="504.2" y2="302"/>
        <line class="st5" x1="460.4" y1="309.3" x2="504.2" y2="309.3"/>
        <line class="st5" x1="460.4" y1="316.5" x2="504.2" y2="316.5"/>
        <line class="st5" x1="460.4" y1="323.7" x2="504.2" y2="323.7"/>
        <line class="st5" x1="460.4" y1="331" x2="504.2" y2="331"/>
        <line class="st5" x1="460.4" y1="338.2" x2="504.2" y2="338.2"/>
        <line class="st5" x1="460.4" y1="345.5" x2="504.2" y2="345.5"/>
        <line class="st5" x1="460.4" y1="352.7" x2="504.2" y2="352.7"/>
        <line class="st5" x1="460.4" y1="360" x2="504.2" y2="360"/>
        <line class="st5" x1="460.4" y1="367.3" x2="504.2" y2="367.3"/>
        <line class="st5" x1="460.4" y1="374.5" x2="504.2" y2="374.5"/>
        <line class="st5" x1="460.4" y1="381.7" x2="504.2" y2="381.7"/>
        <line class="st5" x1="460.4" y1="389" x2="504.2" y2="389"/>
        <line class="st5" x1="460.4" y1="396.2" x2="504.2" y2="396.2"/>
        <line class="st5" x1="460.4" y1="403.4" x2="504.2" y2="403.4"/>
        <line class="st5" x1="460.4" y1="410.7" x2="504.2" y2="410.7"/>
        <line class="st5" x1="460.4" y1="417.9" x2="504.2" y2="417.9"/>
        <line class="st5" x1="460.4" y1="425.3" x2="504.2" y2="425.3"/>
        <line class="st5" x1="460.4" y1="432.5" x2="504.2" y2="432.5"/>
        <line class="st5" x1="460.4" y1="439.7" x2="504.2" y2="439.7"/>
        <line class="st5" x1="460.4" y1="447" x2="504.2" y2="447"/>
        <line class="st5" x1="460.4" y1="454.2" x2="504.2" y2="454.2"/>
        <line class="st5" x1="460.4" y1="461.4" x2="504.2" y2="461.4"/>
        <line class="st5" x1="460.4" y1="468.7" x2="504.2" y2="468.7"/>
        <line class="st5" x1="460.4" y1="475.9" x2="504.2" y2="475.9"/>
        <line class="st5" x1="460.4" y1="483.1" x2="504.2" y2="483.1"/>
        <line class="st5" x1="460.4" y1="490.4" x2="504.2" y2="490.4"/>
        <line class="st5" x1="460.4" y1="497.7" x2="504.2" y2="497.7"/>
        <line class="st5" x1="460.4" y1="505" x2="504.2" y2="505"/>
        <line class="st5" x1="460.4" y1="512.2" x2="504.2" y2="512.2"/>
        <line class="st5" x1="460.4" y1="519.4" x2="504.2" y2="519.4"/>
        <line class="st5" x1="460.4" y1="526.7" x2="504.2" y2="526.7"/>
        <line class="st5" x1="460.4" y1="533.9" x2="504.2" y2="533.9"/>
        <line class="st5" x1="460.4" y1="541.1" x2="504.2" y2="541.1"/>
        <line class="st5" x1="460.4" y1="548.4" x2="504.2" y2="548.4"/>
        <line class="st5" x1="460.4" y1="555.6" x2="504.2" y2="555.6"/>
        <line class="st5" x1="460.4" y1="563" x2="504.2" y2="563"/>
        <line class="st5" x1="460.4" y1="570.2" x2="504.2" y2="570.2"/>
        <line class="st5" x1="460.4" y1="577.4" x2="504.2" y2="577.4"/>
        <line class="st5" x1="460.4" y1="584.7" x2="504.2" y2="584.7"/>
        <line class="st5" x1="460.4" y1="591.9" x2="504.2" y2="591.9"/>
        <line class="st5" x1="460.4" y1="599.1" x2="504.2" y2="599.1"/>
        <line class="st5" x1="460.4" y1="606.4" x2="504.2" y2="606.4"/>
        <line class="st5" x1="460.4" y1="613.6" x2="504.2" y2="613.6"/>
        <line class="st5" x1="460.4" y1="620.8" x2="504.2" y2="620.8"/>
        <line class="st5" x1="460.4" y1="628.2" x2="504.2" y2="628.2"/>
        <line class="st5" x1="460.4" y1="635.4" x2="504.2" y2="635.4"/>
        <line class="st5" x1="460.4" y1="642.6" x2="504.2" y2="642.6"/>
        <line class="st5" x1="460.4" y1="649.9" x2="504.2" y2="649.9"/>
        <line class="st5" x1="460.4" y1="657.1" x2="504.2" y2="657.1"/>
        <line class="st5" x1="460.4" y1="664.4" x2="504.2" y2="664.4"/>
        <line class="st5" x1="460.4" y1="671.6" x2="504.2" y2="671.6"/>
        <line class="st5" x1="460.4" y1="678.8" x2="504.2" y2="678.8"/>
        <line class="st5" x1="460.4" y1="686.1" x2="504.2" y2="686.1"/>
        <line class="st5" x1="460.4" y1="693.3" x2="504.2" y2="693.3"/>
        <line class="st5" x1="460.4" y1="700.7" x2="504.2" y2="700.7"/>
        <line class="st5" x1="460.4" y1="707.9" x2="504.2" y2="707.9"/>
        <line class="st5" x1="460.4" y1="715.1" x2="504.2" y2="715.1"/>
        <line class="st5" x1="460.4" y1="722.4" x2="504.2" y2="722.4"/>
        <line class="st5" x1="460.4" y1="729.6" x2="504.2" y2="729.6"/>
      </g>
      <g>
        <g>
          <line class="st5" x1="616.1" y1="2.1" x2="616" y2="739.1"/>
          <line class="st5" x1="654.3" y1="2.1" x2="654.2" y2="739.1"/>
        </g>
        <line class="st5" x1="613.5" y1="4.8" x2="657.3" y2="4.8"/>
        <line class="st5" x1="613.5" y1="12.1" x2="657.3" y2="12.1"/>
        <line class="st5" x1="613.5" y1="19.3" x2="657.3" y2="19.3"/>
        <line class="st5" x1="613.5" y1="26.6" x2="657.3" y2="26.6"/>
        <line class="st5" x1="613.5" y1="33.9" x2="657.3" y2="33.9"/>
        <line class="st5" x1="613.5" y1="41.1" x2="657.3" y2="41.1"/>
        <line class="st5" x1="613.5" y1="48.3" x2="657.3" y2="48.3"/>
        <line class="st5" x1="613.5" y1="55.6" x2="657.3" y2="55.6"/>
        <line class="st5" x1="613.5" y1="62.8" x2="657.3" y2="62.8"/>
        <line class="st5" x1="613.5" y1="70.1" x2="657.3" y2="70.1"/>
        <line class="st5" x1="613.5" y1="77.3" x2="657.3" y2="77.3"/>
        <line class="st5" x1="613.5" y1="84.5" x2="657.3" y2="84.5"/>
        <line class="st5" x1="613.5" y1="91.9" x2="657.3" y2="91.9"/>
        <line class="st5" x1="613.5" y1="99.1" x2="657.3" y2="99.1"/>
        <line class="st5" x1="613.5" y1="106.3" x2="657.3" y2="106.3"/>
        <line class="st5" x1="613.5" y1="113.6" x2="657.3" y2="113.6"/>
        <line class="st5" x1="613.5" y1="120.8" x2="657.3" y2="120.8"/>
        <line class="st5" x1="613.5" y1="128.1" x2="657.3" y2="128.1"/>
        <line class="st5" x1="613.5" y1="135.3" x2="657.3" y2="135.3"/>
        <line class="st5" x1="613.5" y1="142.5" x2="657.3" y2="142.5"/>
        <line class="st5" x1="613.5" y1="149.8" x2="657.3" y2="149.8"/>
        <line class="st5" x1="613.5" y1="157" x2="657.3" y2="157"/>
        <line class="st5" x1="613.5" y1="164.3" x2="657.3" y2="164.3"/>
        <line class="st5" x1="613.5" y1="171.6" x2="657.3" y2="171.6"/>
        <line class="st5" x1="613.5" y1="178.8" x2="657.3" y2="178.8"/>
        <line class="st5" x1="613.5" y1="186.1" x2="657.3" y2="186.1"/>
        <line class="st5" x1="613.5" y1="193.3" x2="657.3" y2="193.3"/>
        <line class="st5" x1="613.5" y1="200.5" x2="657.3" y2="200.5"/>
        <line class="st5" x1="613.5" y1="207.8" x2="657.3" y2="207.8"/>
        <line class="st5" x1="613.5" y1="215" x2="657.3" y2="215"/>
        <line class="st5" x1="613.5" y1="222.2" x2="657.3" y2="222.2"/>
        <line class="st5" x1="613.5" y1="229.6" x2="657.3" y2="229.6"/>
        <line class="st5" x1="613.5" y1="236.8" x2="657.3" y2="236.8"/>
        <line class="st5" x1="613.5" y1="244" x2="657.3" y2="244"/>
        <line class="st5" x1="613.5" y1="251.3" x2="657.3" y2="251.3"/>
        <line class="st5" x1="613.5" y1="258.5" x2="657.3" y2="258.5"/>
        <line class="st5" x1="613.5" y1="265.7" x2="657.3" y2="265.7"/>
        <line class="st5" x1="613.5" y1="273" x2="657.3" y2="273"/>
        <line class="st5" x1="613.5" y1="280.2" x2="657.3" y2="280.2"/>
        <line class="st5" x1="613.5" y1="287.5" x2="657.3" y2="287.5"/>
        <line class="st5" x1="613.5" y1="294.8" x2="657.3" y2="294.8"/>
        <line class="st5" x1="613.5" y1="302" x2="657.3" y2="302"/>
        <line class="st5" x1="613.5" y1="309.3" x2="657.3" y2="309.3"/>
        <line class="st5" x1="613.5" y1="316.5" x2="657.3" y2="316.5"/>
        <line class="st5" x1="613.5" y1="323.7" x2="657.3" y2="323.7"/>
        <line class="st5" x1="613.5" y1="331" x2="657.3" y2="331"/>
        <line class="st5" x1="613.5" y1="338.2" x2="657.3" y2="338.2"/>
        <line class="st5" x1="613.5" y1="345.5" x2="657.3" y2="345.5"/>
        <line class="st5" x1="613.5" y1="352.7" x2="657.3" y2="352.7"/>
        <line class="st5" x1="613.5" y1="360" x2="657.3" y2="360"/>
        <line class="st5" x1="613.5" y1="367.3" x2="657.3" y2="367.3"/>
        <line class="st5" x1="613.5" y1="374.5" x2="657.3" y2="374.5"/>
        <line class="st5" x1="613.5" y1="381.7" x2="657.3" y2="381.7"/>
        <line class="st5" x1="613.5" y1="389" x2="657.3" y2="389"/>
        <line class="st5" x1="613.5" y1="396.2" x2="657.3" y2="396.2"/>
        <line class="st5" x1="613.5" y1="403.4" x2="657.3" y2="403.4"/>
        <line class="st5" x1="613.5" y1="410.7" x2="657.3" y2="410.7"/>
        <line class="st5" x1="613.5" y1="417.9" x2="657.3" y2="417.9"/>
        <line class="st5" x1="613.5" y1="425.3" x2="657.3" y2="425.3"/>
        <line class="st5" x1="613.5" y1="432.5" x2="657.3" y2="432.5"/>
        <line class="st5" x1="613.5" y1="439.7" x2="657.3" y2="439.7"/>
        <line class="st5" x1="613.5" y1="447" x2="657.3" y2="447"/>
        <line class="st5" x1="613.5" y1="454.2" x2="657.3" y2="454.2"/>
        <line class="st5" x1="613.5" y1="461.4" x2="657.3" y2="461.4"/>
        <line class="st5" x1="613.5" y1="468.7" x2="657.3" y2="468.7"/>
        <line class="st5" x1="613.5" y1="475.9" x2="657.3" y2="475.9"/>
        <line class="st5" x1="613.5" y1="483.1" x2="657.3" y2="483.1"/>
        <line class="st5" x1="613.5" y1="490.4" x2="657.3" y2="490.4"/>
        <line class="st5" x1="613.5" y1="497.7" x2="657.3" y2="497.7"/>
        <line class="st5" x1="613.5" y1="505" x2="657.3" y2="505"/>
        <line class="st5" x1="613.5" y1="512.2" x2="657.3" y2="512.2"/>
        <line class="st5" x1="613.5" y1="519.4" x2="657.3" y2="519.4"/>
        <line class="st5" x1="613.5" y1="526.7" x2="657.3" y2="526.7"/>
        <line class="st5" x1="613.5" y1="533.9" x2="657.3" y2="533.9"/>
        <line class="st5" x1="613.5" y1="541.1" x2="657.3" y2="541.1"/>
        <line class="st5" x1="613.5" y1="548.4" x2="657.3" y2="548.4"/>
        <line class="st5" x1="613.5" y1="555.6" x2="657.3" y2="555.6"/>
        <line class="st5" x1="613.5" y1="563" x2="657.3" y2="563"/>
        <line class="st5" x1="613.5" y1="570.2" x2="657.3" y2="570.2"/>
        <line class="st5" x1="613.5" y1="577.4" x2="657.3" y2="577.4"/>
        <line class="st5" x1="613.5" y1="584.7" x2="657.3" y2="584.7"/>
        <line class="st5" x1="613.5" y1="591.9" x2="657.3" y2="591.9"/>
        <line class="st5" x1="613.5" y1="599.1" x2="657.3" y2="599.1"/>
        <line class="st5" x1="613.5" y1="606.4" x2="657.3" y2="606.4"/>
        <line class="st5" x1="613.5" y1="613.6" x2="657.3" y2="613.6"/>
        <line class="st5" x1="613.5" y1="620.8" x2="657.3" y2="620.8"/>
        <line class="st5" x1="613.5" y1="628.2" x2="657.3" y2="628.2"/>
        <line class="st5" x1="613.5" y1="635.4" x2="657.3" y2="635.4"/>
        <line class="st5" x1="613.5" y1="642.6" x2="657.3" y2="642.6"/>
        <line class="st5" x1="613.5" y1="649.9" x2="657.3" y2="649.9"/>
        <line class="st5" x1="613.5" y1="657.1" x2="657.3" y2="657.1"/>
        <line class="st5" x1="613.5" y1="664.4" x2="657.3" y2="664.4"/>
        <line class="st5" x1="613.5" y1="671.6" x2="657.3" y2="671.6"/>
        <line class="st5" x1="613.5" y1="678.8" x2="657.3" y2="678.8"/>
        <line class="st5" x1="613.5" y1="686.1" x2="657.3" y2="686.1"/>
        <line class="st5" x1="613.5" y1="693.3" x2="657.3" y2="693.3"/>
        <line class="st5" x1="613.5" y1="700.7" x2="657.3" y2="700.7"/>
        <line class="st5" x1="613.5" y1="707.9" x2="657.3" y2="707.9"/>
        <line class="st5" x1="613.5" y1="715.1" x2="657.3" y2="715.1"/>
        <line class="st5" x1="613.5" y1="722.4" x2="657.3" y2="722.4"/>
        <line class="st5" x1="613.5" y1="729.6" x2="657.3" y2="729.6"/>
      </g>
      <g>
        <g>
          <line class="st5" x1="663.8" y1="2.1" x2="663.7" y2="739.1"/>
          <line class="st5" x1="702" y1="2.1" x2="701.9" y2="739.1"/>
        </g>
        <line class="st5" x1="661.2" y1="4.8" x2="705" y2="4.8"/>
        <line class="st5" x1="661.2" y1="12.1" x2="705" y2="12.1"/>
        <line class="st5" x1="661.2" y1="19.3" x2="705" y2="19.3"/>
        <line class="st5" x1="661.2" y1="26.6" x2="705" y2="26.6"/>
        <line class="st5" x1="661.2" y1="33.9" x2="705" y2="33.9"/>
        <line class="st5" x1="661.2" y1="41.1" x2="705" y2="41.1"/>
        <line class="st5" x1="661.2" y1="48.3" x2="705" y2="48.3"/>
        <line class="st5" x1="661.2" y1="55.6" x2="705" y2="55.6"/>
        <line class="st5" x1="661.2" y1="62.8" x2="705" y2="62.8"/>
        <line class="st5" x1="661.2" y1="70.1" x2="705" y2="70.1"/>
        <line class="st5" x1="661.2" y1="77.3" x2="705" y2="77.3"/>
        <line class="st5" x1="661.2" y1="84.5" x2="705" y2="84.5"/>
        <line class="st5" x1="661.2" y1="91.9" x2="705" y2="91.9"/>
        <line class="st5" x1="661.2" y1="99.1" x2="705" y2="99.1"/>
        <line class="st5" x1="661.2" y1="106.3" x2="705" y2="106.3"/>
        <line class="st5" x1="661.2" y1="113.6" x2="705" y2="113.6"/>
        <line class="st5" x1="661.2" y1="120.8" x2="705" y2="120.8"/>
        <line class="st5" x1="661.2" y1="128.1" x2="705" y2="128.1"/>
        <line class="st5" x1="661.2" y1="135.3" x2="705" y2="135.3"/>
        <line class="st5" x1="661.2" y1="142.5" x2="705" y2="142.5"/>
        <line class="st5" x1="661.2" y1="149.8" x2="705" y2="149.8"/>
        <line class="st5" x1="661.2" y1="157" x2="705" y2="157"/>
        <line class="st5" x1="661.2" y1="164.3" x2="705" y2="164.3"/>
        <line class="st5" x1="661.2" y1="171.6" x2="705" y2="171.6"/>
        <line class="st5" x1="661.2" y1="178.8" x2="705" y2="178.8"/>
        <line class="st5" x1="661.2" y1="186.1" x2="705" y2="186.1"/>
        <line class="st5" x1="661.2" y1="193.3" x2="705" y2="193.3"/>
        <line class="st5" x1="661.2" y1="200.5" x2="705" y2="200.5"/>
        <line class="st5" x1="661.2" y1="207.8" x2="705" y2="207.8"/>
        <line class="st5" x1="661.2" y1="215" x2="705" y2="215"/>
        <line class="st5" x1="661.2" y1="222.2" x2="705" y2="222.2"/>
        <line class="st5" x1="661.2" y1="229.6" x2="705" y2="229.6"/>
        <line class="st5" x1="661.2" y1="236.8" x2="705" y2="236.8"/>
        <line class="st5" x1="661.2" y1="244" x2="705" y2="244"/>
        <line class="st5" x1="661.2" y1="251.3" x2="705" y2="251.3"/>
        <line class="st5" x1="661.2" y1="258.5" x2="705" y2="258.5"/>
        <line class="st5" x1="661.2" y1="265.7" x2="705" y2="265.7"/>
        <line class="st5" x1="661.2" y1="273" x2="705" y2="273"/>
        <line class="st5" x1="661.2" y1="280.2" x2="705" y2="280.2"/>
        <line class="st5" x1="661.2" y1="287.5" x2="705" y2="287.5"/>
        <line class="st5" x1="661.2" y1="294.8" x2="705" y2="294.8"/>
        <line class="st5" x1="661.2" y1="302" x2="705" y2="302"/>
        <line class="st5" x1="661.2" y1="309.3" x2="705" y2="309.3"/>
        <line class="st5" x1="661.2" y1="316.5" x2="705" y2="316.5"/>
        <line class="st5" x1="661.2" y1="323.7" x2="705" y2="323.7"/>
        <line class="st5" x1="661.2" y1="331" x2="705" y2="331"/>
        <line class="st5" x1="661.2" y1="338.2" x2="705" y2="338.2"/>
        <line class="st5" x1="661.2" y1="345.5" x2="705" y2="345.5"/>
        <line class="st5" x1="661.2" y1="352.7" x2="705" y2="352.7"/>
        <line class="st5" x1="661.2" y1="360" x2="705" y2="360"/>
        <line class="st5" x1="661.2" y1="367.3" x2="705" y2="367.3"/>
        <line class="st5" x1="661.2" y1="374.5" x2="705" y2="374.5"/>
        <line class="st5" x1="661.2" y1="381.7" x2="705" y2="381.7"/>
        <line class="st5" x1="661.2" y1="389" x2="705" y2="389"/>
        <line class="st5" x1="661.2" y1="396.2" x2="705" y2="396.2"/>
        <line class="st5" x1="661.2" y1="403.4" x2="705" y2="403.4"/>
        <line class="st5" x1="661.2" y1="410.7" x2="705" y2="410.7"/>
        <line class="st5" x1="661.2" y1="417.9" x2="705" y2="417.9"/>
        <line class="st5" x1="661.2" y1="425.3" x2="705" y2="425.3"/>
        <line class="st5" x1="661.2" y1="432.5" x2="705" y2="432.5"/>
        <line class="st5" x1="661.2" y1="439.7" x2="705" y2="439.7"/>
        <line class="st5" x1="661.2" y1="447" x2="705" y2="447"/>
        <line class="st5" x1="661.2" y1="454.2" x2="705" y2="454.2"/>
        <line class="st5" x1="661.2" y1="461.4" x2="705" y2="461.4"/>
        <line class="st5" x1="661.2" y1="468.7" x2="705" y2="468.7"/>
        <line class="st5" x1="661.2" y1="475.9" x2="705" y2="475.9"/>
        <line class="st5" x1="661.2" y1="483.1" x2="705" y2="483.1"/>
        <line class="st5" x1="661.2" y1="490.4" x2="705" y2="490.4"/>
        <line class="st5" x1="661.2" y1="497.7" x2="705" y2="497.7"/>
        <line class="st5" x1="661.2" y1="505" x2="705" y2="505"/>
        <line class="st5" x1="661.2" y1="512.2" x2="705" y2="512.2"/>
        <line class="st5" x1="661.2" y1="519.4" x2="705" y2="519.4"/>
        <line class="st5" x1="661.2" y1="526.7" x2="705" y2="526.7"/>
        <line class="st5" x1="661.2" y1="533.9" x2="705" y2="533.9"/>
        <line class="st5" x1="661.2" y1="541.1" x2="705" y2="541.1"/>
        <line class="st5" x1="661.2" y1="548.4" x2="705" y2="548.4"/>
        <line class="st5" x1="661.2" y1="555.6" x2="705" y2="555.6"/>
        <line class="st5" x1="661.2" y1="563" x2="705" y2="563"/>
        <line class="st5" x1="661.2" y1="570.2" x2="705" y2="570.2"/>
        <line class="st5" x1="661.2" y1="577.4" x2="705" y2="577.4"/>
        <line class="st5" x1="661.2" y1="584.7" x2="705" y2="584.7"/>
        <line class="st5" x1="661.2" y1="591.9" x2="705" y2="591.9"/>
        <line class="st5" x1="661.2" y1="599.1" x2="705" y2="599.1"/>
        <line class="st5" x1="661.2" y1="606.4" x2="705" y2="606.4"/>
        <line class="st5" x1="661.2" y1="613.6" x2="705" y2="613.6"/>
        <line class="st5" x1="661.2" y1="620.8" x2="705" y2="620.8"/>
        <line class="st5" x1="661.2" y1="628.2" x2="705" y2="628.2"/>
        <line class="st5" x1="661.2" y1="635.4" x2="705" y2="635.4"/>
        <line class="st5" x1="661.2" y1="642.6" x2="705" y2="642.6"/>
        <line class="st5" x1="661.2" y1="649.9" x2="705" y2="649.9"/>
        <line class="st5" x1="661.2" y1="657.1" x2="705" y2="657.1"/>
        <line class="st5" x1="661.2" y1="664.4" x2="705" y2="664.4"/>
        <line class="st5" x1="661.2" y1="671.6" x2="705" y2="671.6"/>
        <line class="st5" x1="661.2" y1="678.8" x2="705" y2="678.8"/>
        <line class="st5" x1="661.2" y1="686.1" x2="705" y2="686.1"/>
        <line class="st5" x1="661.2" y1="693.3" x2="705" y2="693.3"/>
        <line class="st5" x1="661.2" y1="700.7" x2="705" y2="700.7"/>
        <line class="st5" x1="661.2" y1="707.9" x2="705" y2="707.9"/>
        <line class="st5" x1="661.2" y1="715.1" x2="705" y2="715.1"/>
        <line class="st5" x1="661.2" y1="722.4" x2="705" y2="722.4"/>
        <line class="st5" x1="661.2" y1="729.6" x2="705" y2="729.6"/>
      </g>
      <rect class="st17" x="391.1" y="0" width="9.1" height="741.7"/>
      <rect class="st12" x="516.2" y="0" width="9.2" height="741.7"/>
      <rect class="st8" x="592" y="0" width="9.2" height="741.7"/>
      <rect class="st1" x="717.8" y="0" width="9.2" height="741.7"/>
      <rect class="st11" x="852.3" y="158.4" width="62.6" height="41"/>
      <rect class="st11" x="924.9" y="158.4" width="48.4" height="41"/>
      <polygon class="st14" points="1025 0 1024.9 111.2 284.8 111.9 284.8 0 246 0 246 410.9 259.8 410.9 284.8 410.9 793.5 410.9 793.5 361.9 284.8 361.9 284.8 169.1 1024.9 168.3 1024.9 611.2 291.2 611.9 291.2 653.5 988.1 653.5 1169.7 653.5 1169.7 611.9 1169.8 0 1025 0"/>
      <rect class="st14" x="1025" y="450.1" width="145" height="291.7"/>
      <rect class="st11" x="159.3" y="0" width="36.9" height="76.8"/>
      <rect class="st11" x="159.3" y="393.3" width="36.9" height="132.1"/>
      <rect class="st11" x="159.3" y="550.3" width="36.9" height="64.5"/>
      <rect class="st11" x="539.3" y="342.7" width="38.4" height="19.2"/>
      <rect class="st11" x="846.5" y="409.7" width="65.9" height="36.5"/>
      <rect class="st16" x="334" y="79.3" width="32.5" height="32.5"/>
      <rect class="st13" x="213.6" y="124.3" width="32.5" height="32.5"/>
      <rect class="st13" x="334" y="169" width="32.5" height="32.5"/>
      <rect class="st16" x="542.4" y="79.1" width="32.5" height="32.5"/>
      <rect class="st16" x="542.4" y="168.8" width="32.5" height="32.5"/>
      <rect class="st16" x="744.7" y="79" width="32.5" height="32.5"/>
      <rect class="st13" x="744.7" y="168.6" width="32.5" height="32.5"/>
      <rect class="st13" x="334" y="579.3" width="32.5" height="32.5"/>
      <rect class="st16" x="334" y="653.5" width="32.5" height="32.5"/>
      <rect class="st13" x="334" y="579.3" width="32.5" height="32.5"/>
      <rect class="st16" x="334" y="653.5" width="32.5" height="32.5"/>
      <rect class="st16" x="542.4" y="579.1" width="32.5" height="32.5"/>
      <rect class="st16" x="542.4" y="653.5" width="32.5" height="32.5"/>
      <rect class="st16" x="334" y="329.4" width="32.5" height="32.5"/>
      <rect class="st16" x="334" y="410.9" width="32.5" height="32.5"/>
      <rect class="st16" x="542.4" y="410.9" width="32.5" height="32.5"/>
      <rect class="st16" x="744.7" y="329.4" width="32.5" height="32.5"/>
      <rect class="st16" x="744.7" y="410.9" width="32.5" height="32.5"/>
      <g>
        <rect class="st0" x="825.7" y="485" width="62" height="21.5"/>
        <rect class="st7" x="869.1" y="486.3" width="7.3" height="18.9"/>
        <rect class="st0" x="825.7" y="512" width="62" height="21.5"/>
        <rect class="st7" x="869.1" y="513.2" width="7.3" height="18.9"/>
        <rect class="st0" x="825.7" y="539" width="62" height="21.5"/>
        <rect class="st7" x="869.1" y="540.4" width="7.3" height="18.9"/>
      </g>
      <path class="st4" d="M1169.8,593.8h-73.7c-17.2,0-31.1-13.9-31.1-31.1V76c0-17.2,13.9-31.1,31.1-31.1h73.7"/>
      <g>
        <rect class="st15" y="0" width="100.2" height="741.7"/>
        <line class="st6" x1="50.1" y1="0" x2="50" y2="741.8"/>
      </g>
    </g>
    <g>
      <path class="st3" d="M1125.1,443.2c.2-.7.6-1.4,1-2s1-1.1,1.6-1.5,1.4-.8,2.3-1,1.9-.3,3.1-.3h1.8c5.7,0,8.5,2.8,8.5,8.5v19.2h-35v-18.2c0-5.7,2.8-8.5,8.5-8.5h.6c2,0,3.6.3,4.8.9,1.2.6,2.2,1.6,2.8,2.9h0ZM1113.3,461.1h10v-13.5c0-1.2-.4-2.1-1-2.6s-1.6-.8-2.8-.8h-2.3c-1.3,0-2.3.3-2.9.9s-.9,1.5-.9,2.9v13.1h0ZM1128.1,461.1h10.3v-14.1c0-1.3-.3-2.3-.9-2.9s-1.6-.9-2.9-.9h-2.7c-1.3,0-2.3.3-2.9.9s-.9,1.5-.9,2.9v14.1h0Z"/>
      <path class="st3" d="M1108.4,430.8v-5h30v-20h-30v-5h30c.7,0,1.3.1,1.9.4s1.1.6,1.6,1.1.8,1,1.1,1.6c.3.6.4,1.3.4,1.9v20c0,.7,0,1.3-.4,1.9s-.6,1.1-1.1,1.6-1,.8-1.6,1.1-1.3.4-1.9.4h-30Z"/>
      <path class="st3" d="M1128.4,386.8c0,.7,0,1.3-.4,1.9s-.6,1.1-1.1,1.6c-.4.5-1,.8-1.6,1.1s-1.3.4-1.9.4h-10c-.7,0-1.3-.1-1.9-.4s-1.1-.6-1.6-1.1c-.4-.5-.8-1-1.1-1.6-.3-.6-.4-1.3-.4-1.9v-17c0-.7,0-1.3.4-1.9s.6-1.1,1.1-1.6c.4-.5,1-.8,1.6-1.1s1.3-.4,1.9-.4h4.5v5h-4.5v17h10v-17c0-.7,0-1.3.4-1.9s.6-1.1,1.1-1.6,1-.8,1.6-1.1,1.3-.4,1.9-.4h10c.7,0,1.3.1,1.9.4s1.1.6,1.6,1.1.8,1,1.1,1.6c.3.6.4,1.3.4,1.9v17.5c0,.7,0,1.3-.4,1.9s-.6,1.1-1.1,1.6-1,.8-1.6,1.1-1.3.4-1.9.4h-4.5v-5h4.5v-17.5h-10v17h0Z"/>
      <path class="st3" d="M1128.4,335.8c0,.7,0,1.3-.4,1.9s-.6,1.1-1.1,1.6c-.4.5-1,.8-1.6,1.1s-1.3.4-1.9.4h-10c-.7,0-1.3-.1-1.9-.4s-1.1-.6-1.6-1.1c-.4-.5-.8-1-1.1-1.6-.3-.6-.4-1.3-.4-1.9v-17c0-.7,0-1.3.4-1.9s.6-1.1,1.1-1.6c.4-.5,1-.8,1.6-1.1s1.3-.4,1.9-.4h4.5v5h-4.5v17h10v-17c0-.7,0-1.3.4-1.9s.6-1.1,1.1-1.6,1-.8,1.6-1.1,1.3-.4,1.9-.4h10c.7,0,1.3.1,1.9.4s1.1.6,1.6,1.1.8,1,1.1,1.6c.3.6.4,1.3.4,1.9v17.5c0,.7,0,1.3-.4,1.9s-.6,1.1-1.1,1.6-1,.8-1.6,1.1-1.3.4-1.9.4h-4.5v-5h4.5v-17.5h-10v17h0Z"/>
      <path class="st3" d="M1108.4,307.8v-28h5v11.5h30v5h-30v11.5h-5Z"/>
      <path class="st3" d="M1108.4,262.3l35-13.5v5l-8.1,3.1v15.8l8.1,3.1v5l-35-13.5v-5h0ZM1130.3,270.8v-12l-15.4,6,15.4,6h0Z"/>
      <path class="st3" d="M1143.4,237.8v5h-35v-5l27.2-21.1h-27.2v-5h35v5l-27.2,21.1h27.2Z"/>
      <path class="st3" d="M1143.4,202.8h-35v-17.8c0-1.9.3-3.6.9-5.1s1.4-2.8,2.5-3.9c1.1-1.1,2.4-1.9,3.9-2.5s3.2-.9,5.1-.9h10.5c1.9,0,3.5.3,5.1.9s2.8,1.4,3.9,2.5,1.9,2.4,2.5,3.9.9,3.2.9,5.1v17.8h-.3ZM1138.4,185c0-2.3-.6-4.1-1.9-5.4-1.3-1.3-3-1.9-5.4-1.9h-10.5c-1.1,0-2.2.2-3.1.5s-1.7.8-2.3,1.4c-.6.6-1.1,1.4-1.4,2.3-.3.9-.5,1.9-.5,3.1v12.8h25v-12.8h.1Z"/>
    </g>
    <rect class="st11" x="897.7" y="653.5" width="36.4" height="20.8"/>
    <rect class="st13" x="744.5" y="579" width="32.5" height="32.5"/>
    <rect class="st16" x="744.5" y="653.4" width="32.5" height="32.5"/>
  </g>
  <g>
    <rect class="st9" x="96.8" y="25.8" width="56.5" height="18.2" rx=".8" ry=".8"/>
    <g>
      <path d="M103.4,38.6l-1.9-7.1h1c.6,2.3,1.3,5.3,1.4,6.1h0c.2-.9,1.2-4.3,1.6-6.1h.9c.4,1.6,1.4,5.2,1.6,6h0c.2-1.2,1.2-4.6,1.6-6h.9l-2.1,7.1h-1c-.4-1.6-1.3-5-1.5-5.9h0c-.2,1.1-1.1,4.2-1.6,5.9h-1,0Z"/>
      <path d="M114.8,37.4v1.1h-.9v-.7c-.2.3-.6.8-1.6.8s-1.7-.8-1.7-1.6c0-1.2.9-1.7,2.4-1.7h.9v-.4c0-.5,0-1-1.1-1s-1,.4-1.1.8h-.9c0-.7.5-1.5,2-1.5s2,.5,2,1.7c0,0,0,2.5,0,2.5ZM114,36.1h-.8c-1,0-1.6.3-1.6,1s.4.9,1,.9c1.2,0,1.4-.8,1.4-1.8v-.2h0Z"/>
      <path d="M116.7,37.1c0,.6.6.9,1.3.9s1.1-.3,1.1-.8-.2-.7-1.2-.9c-1.5-.4-1.8-.8-1.8-1.5s.5-1.5,1.9-1.5,1.9.8,1.9,1.5h-.9c0-.3-.3-.8-1.1-.8s-.9.3-.9.7.2.6,1.2.8c1.6.4,1.9.9,1.9,1.7s-.7,1.6-2,1.6-2-.7-2.1-1.6h.9-.2Z"/>
      <path d="M122,31.1v3.1c.3-.5.7-.9,1.6-.9s1.7.5,1.7,2v3.3h-.9v-3.1c0-.9-.4-1.4-1.1-1.4s-1.3.6-1.3,1.7v2.8h-.9v-7.5s.9,0,.9,0Z"/>
      <path d="M126.8,34.8v-1.4h.9v1.1c.3-.7.9-1.2,1.7-1.2v.9c-1.1,0-1.7.6-1.7,1.9v2.5h-.9s0-3.8,0-3.8Z"/>
      <path d="M134.8,36c0,1.5-.9,2.7-2.4,2.7s-2.4-1.1-2.4-2.7.9-2.7,2.4-2.7,2.4,1.1,2.4,2.7ZM130.9,36c0,1.1.6,2,1.5,2s1.5-.8,1.5-2-.5-2-1.5-2-1.5.8-1.5,2Z"/>
      <path d="M140.4,36c0,1.5-.9,2.7-2.4,2.7s-2.4-1.1-2.4-2.7.9-2.7,2.4-2.7,2.4,1.1,2.4,2.7ZM136.5,36c0,1.1.6,2,1.5,2s1.5-.8,1.5-2-.5-2-1.5-2-1.5.8-1.5,2Z"/>
      <path d="M141.6,34.7v-1.3h.9v.8c.2-.5.7-.9,1.5-.9s1.2.4,1.4.9c.3-.5.8-.9,1.6-.9s1.6.5,1.6,1.9v3.4h-.9v-3.3c0-.6-.2-1.2-1-1.2s-1.2.6-1.2,1.6v3h-.9v-3.3c0-.7-.2-1.3-1-1.3s-1.2.7-1.2,1.7v2.9h-.9v-4h0Z"/>
    </g>
  </g>
  <g>
    <rect class="st9" x="282" y="25.8" width="81" height="18.2" rx=".8" ry=".8"/>
    <g>
      <path d="M292.1,34.3h-3.5v2.5h3.9v.8h-4.8v-7.1h4.6v.8h-3.7v2.2h3.5v.8Z"/>
      <path d="M297.5,36.4v1.1h-.9v-.7c-.2.3-.6.8-1.6.8s-1.7-.8-1.7-1.6c0-1.2.9-1.7,2.4-1.7h.9v-.4c0-.5-.1-1-1.1-1s-1,.4-1.1.8h-.9c0-.7.5-1.5,2-1.5s2,.5,2,1.7v2.5h0ZM296.6,35h-.8c-1,0-1.6.3-1.6,1s.4.9,1,.9c1.2,0,1.4-.8,1.4-1.8v-.2h0Z"/>
      <path d="M299.4,36.1c.1.6.6.9,1.3.9s1.1-.3,1.1-.8-.2-.7-1.2-.9c-1.5-.4-1.8-.8-1.8-1.5s.5-1.5,1.9-1.5,1.9.8,1.9,1.5h-.9c0-.3-.3-.8-1.1-.8s-.9.3-.9.7.2.6,1.2.8c1.6.4,1.9.9,1.9,1.7s-.7,1.6-2,1.6-2-.7-2.1-1.6h.9-.2,0Z"/>
      <path d="M303.1,32.4h.9v-1.5h.9v1.5h1.1v.7h-1.1v3c0,.5.1.8.6.8h.5v.7h-.8c-.8,0-1.2-.4-1.2-1.3v-3.2h-.9v-.7Z"/>
      <path d="M309.7,30.5h2.7c1.5,0,2.2.8,2.2,1.8s-.5,1.4-1,1.5c.5.2,1.3.7,1.3,1.7s-1,2.1-2.4,2.1h-2.8v-7.1h0ZM312.3,33.4c1,0,1.4-.4,1.4-1.1s-.4-1.1-1.3-1.1h-1.8v2.2h1.7,0ZM310.6,36.8h1.8c.9,0,1.5-.4,1.5-1.3s-.5-1.3-1.7-1.3h-1.6v2.6h0Z"/>
      <path d="M316.1,33.8v-1.4h.9v1.1c.3-.7.9-1.2,1.7-1.2v.9c-1.1,0-1.7.6-1.7,1.9v2.5h-.9v-3.8Z"/>
      <path d="M319.6,30.1h.9v1.1h-.9v-1.1ZM319.6,32.4h.9v5.2h-.9v-5.2Z"/>
      <path d="M326.3,30.1v7.5h-.9v-.7c-.3.5-.8.9-1.6.9-1.3,0-2.1-1.1-2.1-2.7s.9-2.8,2.3-2.8,1.3.4,1.5.7v-2.9h.9,0ZM322.6,35c0,1.2.6,1.9,1.4,1.9,1.2,0,1.5-.9,1.5-2s-.2-1.9-1.4-1.9-1.5.7-1.5,2Z"/>
      <path d="M332.1,37.1c0,1.7-.7,2.6-2.4,2.6s-2-.9-2.1-1.6h.9c.2.6.6.9,1.3.9,1.2,0,1.5-.7,1.5-1.9v-.4c-.3.6-.7.9-1.6.9-1.3,0-2.1-1-2.1-2.6s1-2.7,2.2-2.7,1.4.5,1.5.8v-.7h.8v4.7h0ZM328.4,35c0,1.1.6,1.8,1.4,1.8s1.4-.7,1.4-1.9-.3-1.9-1.4-1.9-1.4.8-1.4,1.9h0Z"/>
      <path d="M334.1,35.1c0,1.1.5,1.8,1.4,1.8s1.1-.4,1.2-.8h.9c-.2.7-.8,1.5-2.2,1.5s-2.3-1.3-2.3-2.7.8-2.8,2.3-2.8,2.2,1.3,2.2,2.4,0,.3,0,.4h-3.6v.2s.1,0,.1,0ZM336.9,34.5c0-.8-.4-1.5-1.3-1.5s-1.3.6-1.4,1.5h2.7,0Z"/>
      <path d="M346.1,34.3h-3.5v2.5h3.9v.8h-4.8v-7.1h4.6v.8h-3.7v2.2h3.5v.8Z"/>
      <path d="M348.2,32.4c.7,1.1,1,1.6,1.2,1.9h0c.2-.3.7-1,1.3-1.9h1l-1.7,2.5,1.8,2.7h-1c-.6-1-1.1-1.7-1.3-2h0c-.2.3-.6,1-1.3,2h-1l1.7-2.6-1.7-2.6s1,0,1,0Z"/>
      <path d="M352.6,30.1h.9v1.1h-.9v-1.1ZM352.6,32.4h.9v5.2h-.9v-5.2Z"/>
      <path d="M354.4,32.4h.9v-1.5h.9v1.5h1.1v.7h-1.1v3c0,.5.1.8.6.8h.5v.7h-.8c-.8,0-1.2-.4-1.2-1.3v-3.2h-.9v-.7Z"/>
    </g>
  </g>
  <g>
    <rect class="st9" x="923" y="305.4" width="48.7" height="18.2" rx=".8" ry=".8"/>
    <g>
      <path d="M928.5,318.2l-1.9-7.1h1c.6,2.3,1.3,5.3,1.4,6.1h0c.2-.9,1.2-4.3,1.6-6.1h.9c.4,1.6,1.4,5.2,1.6,6h0c.2-1.2,1.2-4.6,1.6-6h.9l-2.1,7.1h-1c-.4-1.6-1.3-5-1.5-5.9h0c-.2,1.1-1.1,4.2-1.6,5.9h-1,0Z"/>
      <path d="M936.8,315.8c0,1.1.5,1.8,1.4,1.8s1.1-.4,1.2-.8h.9c-.2.7-.8,1.5-2.2,1.5s-2.3-1.3-2.3-2.7.8-2.8,2.3-2.8,2.2,1.3,2.2,2.4,0,.3,0,.4h-3.6v.2h0ZM939.5,315.1c0-.8-.4-1.5-1.3-1.5s-1.3.6-1.4,1.5h2.7Z"/>
      <path d="M942.1,316.7c0,.6.6.9,1.3.9s1.1-.3,1.1-.8-.2-.7-1.2-.9c-1.5-.4-1.8-.8-1.8-1.5s.5-1.5,1.9-1.5,1.9.8,1.9,1.5h-.9c0-.3-.3-.8-1.1-.8s-.9.3-.9.7.2.6,1.2.8c1.6.4,1.9.9,1.9,1.7s-.7,1.6-2,1.6-2-.7-2.1-1.6h.9-.2Z"/>
      <path d="M945.8,313h.9v-1.5h.9v1.5h1.1v.7h-1.1v3c0,.5,0,.8.6.8h.5v.7h-.8c-.8,0-1.2-.4-1.2-1.3v-3.2h-.9v-.7Z"/>
      <path d="M956.9,314.9h-3.5v2.5h3.9v.8h-4.8v-7.1h4.6v.8h-3.7v2.2h3.5v.8h0Z"/>
      <path d="M959,313c.7,1.1,1,1.6,1.2,1.9h0c.2-.3.7-1,1.3-1.9h1l-1.7,2.5,1.8,2.7h-1c-.6-1-1.1-1.7-1.3-2h0c-.2.3-.6,1-1.3,2h-1l1.7-2.6-1.7-2.6h1Z"/>
      <path d="M963.4,310.7h.9v1.1h-.9v-1.1ZM963.4,313h.9v5.2h-.9v-5.2Z"/>
      <path d="M965.2,313h.9v-1.5h.9v1.5h1.1v.7h-1.1v3c0,.5,0,.8.6.8h.5v.7h-.8c-.8,0-1.2-.4-1.2-1.3v-3.2h-.9v-.7Z"/>
    </g>
  </g>
  <g>
    <rect class="st9" x="85.8" y="302.1" width="48.7" height="18.2" rx=".8" ry=".8"/>
    <g>
      <path d="M95.7,311.6h-3.5v2.5h3.9v.8h-4.8v-7.1h4.6v.8h-3.7v2.2h3.5v.8h0Z"/>
      <path d="M101.1,313.8v1.1h-.9v-.7c-.2.3-.6.8-1.6.8s-1.7-.8-1.7-1.6c0-1.2.9-1.7,2.4-1.7h.9v-.4c0-.5,0-1-1.1-1s-1,.4-1.1.8h-.9c0-.7.5-1.5,2-1.5s2,.5,2,1.7v2.5h0ZM100.2,312.4h-.8c-1,0-1.6.3-1.6,1s.4.9,1,.9c1.2,0,1.4-.8,1.4-1.8v-.2h0Z"/>
      <path d="M103,313.5c0,.6.6.9,1.3.9s1.1-.3,1.1-.8-.2-.7-1.2-.9c-1.5-.4-1.8-.8-1.8-1.5s.5-1.5,1.9-1.5,1.9.8,1.9,1.5h-.9c0-.3-.3-.8-1.1-.8s-.9.3-.9.7.2.6,1.2.8c1.6.4,1.9.9,1.9,1.7s-.7,1.6-2,1.6-2-.7-2.1-1.6h.9-.2Z"/>
      <path d="M106.7,309.8h.9v-1.5h.9v1.5h1.1v.7h-1.1v3c0,.5,0,.8.6.8h.5v.7h-.8c-.8,0-1.2-.4-1.2-1.3v-3.2h-.9v-.7Z"/>
      <path d="M117.8,311.6h-3.5v2.5h3.9v.8h-4.8v-7.1h4.6v.8h-3.7v2.2h3.5v.8h0Z"/>
      <path d="M119.9,309.8c.7,1.1,1,1.6,1.2,1.9h0c.2-.3.7-1,1.3-1.9h1l-1.7,2.5,1.8,2.7h-1c-.6-1-1.1-1.7-1.3-2h0c-.2.3-.6,1-1.3,2h-1l1.7-2.6-1.7-2.6h1Z"/>
      <path d="M124.3,307.5h.9v1.1h-.9v-1.1ZM124.3,309.8h.9v5.2h-.9v-5.2Z"/>
      <path d="M126.1,309.8h.9v-1.5h.9v1.5h1.1v.7h-1.1v3c0,.5,0,.8.6.8h.5v.7h-.8c-.8,0-1.2-.4-1.2-1.3v-3.2h-.9v-.7Z"/>
    </g>
  </g>
  <g>
    <rect class="st9" x="11.1" y="368.8" width="81" height="18.2" rx=".8" ry=".8"/>
    <g>
      <path d="M23.1,377.1c0,2-1.1,3.7-3.3,3.7s-3.3-1.6-3.3-3.6,1.2-3.6,3.3-3.6,3.2,1.5,3.2,3.6h0ZM17.5,377.1c0,1.5.8,2.9,2.3,2.9s2.3-1.4,2.3-2.9-.7-2.8-2.3-2.8-2.3,1.3-2.3,2.8Z"/>
      <path d="M23.9,375.5h.9v-1.5h.9v1.5h1.1v.7h-1.1v3c0,.5.1.8.6.8h.5v.7h-.8c-.8,0-1.2-.4-1.2-1.3v-3.2h-.9v-.7Z"/>
      <path d="M28.6,373.2v3.1c.3-.5.7-.9,1.6-.9s1.7.5,1.7,2v3.3h-.9v-3.1c0-.9-.4-1.4-1.1-1.4s-1.3.6-1.3,1.7v2.8h-.9v-7.5s.9,0,.9,0Z"/>
      <path d="M34.1,378.2c0,1.1.5,1.8,1.4,1.8s1.1-.4,1.2-.8h.9c-.2.7-.8,1.5-2.2,1.5s-2.3-1.3-2.3-2.7.8-2.8,2.3-2.8,2.2,1.3,2.2,2.4,0,.3,0,.4h-3.6v.2h0ZM36.8,377.6c0-.8-.4-1.5-1.3-1.5s-1.3.6-1.4,1.5h2.7Z"/>
      <path d="M38.9,376.9v-1.4h.9v1.1c.3-.7.9-1.2,1.7-1.2v.9c-1.1,0-1.7.6-1.7,1.9v2.5h-.9v-3.8Z"/>
      <path d="M46.6,374.4h-2.3v-.8h5.5v.8h-2.3v6.3h-.9v-6.3Z"/>
      <path d="M49.9,376.9v-1.4h.9v1.1c.3-.7.9-1.2,1.7-1.2v.9c-1.1,0-1.7.6-1.7,1.9v2.5h-.9v-3.8Z"/>
      <path d="M57.2,379.5v1.1h-.9v-.7c-.2.3-.6.8-1.6.8s-1.7-.8-1.7-1.6c0-1.2.9-1.7,2.4-1.7h.9v-.4c0-.5,0-1-1.1-1s-1,.4-1.1.8h-.9c0-.7.5-1.5,2-1.5s2,.5,2,1.7v2.5h0ZM56.3,378.2h-.8c-1,0-1.6.3-1.6,1s.4.9,1,.9c1.2,0,1.4-.8,1.4-1.8v-.2h0Z"/>
      <path d="M58.7,376.8v-1.3h.9v.8c.2-.4.6-1,1.6-1s1.7.6,1.7,2v3.3h-.9v-3.2c0-.8-.3-1.3-1.1-1.3s-1.4.7-1.4,1.8v2.7h-.9v-3.9h.1Z"/>
      <path d="M64.9,379.2c0,.6.6.9,1.3.9s1.1-.3,1.1-.8-.2-.7-1.2-.9c-1.5-.4-1.8-.8-1.8-1.5s.5-1.5,1.9-1.5,1.9.8,1.9,1.5h-.9c0-.3-.3-.8-1.1-.8s-.9.3-.9.7.2.6,1.2.8c1.6.4,1.9.9,1.9,1.7s-.7,1.6-2,1.6-2-.7-2.1-1.6h.9-.2Z"/>
      <path d="M70.1,380v2.7h-.9v-7.2h.9v.8c.3-.5.8-.9,1.7-.9s2.1,1,2.1,2.6-1,2.8-2.2,2.8-1.3-.4-1.5-.8h0ZM72.9,378c0-1.1-.5-1.8-1.4-1.8s-1.5.7-1.5,1.9.3,2,1.4,2,1.4-.8,1.4-2.1h0Z"/>
      <path d="M79.5,378.1c0,1.5-.9,2.7-2.4,2.7s-2.4-1.1-2.4-2.7.9-2.7,2.4-2.7,2.4,1.1,2.4,2.7ZM75.6,378.1c0,1.1.6,2,1.5,2s1.5-.8,1.5-2-.5-2-1.5-2-1.5.8-1.5,2Z"/>
      <path d="M80.7,376.9v-1.4h.9v1.1c.3-.7.9-1.2,1.7-1.2v.9c-1.1,0-1.7.6-1.7,1.9v2.5h-.9v-3.8Z"/>
      <path d="M83.9,375.5h.9v-1.5h.9v1.5h1.1v.7h-1.1v3c0,.5,0,.8.6.8h.5v.7h-.8c-.8,0-1.2-.4-1.2-1.3v-3.2h-.9v-.7Z"/>
    </g>
  </g>
  <g>
    <rect class="st9" x="72.3" y="418.6" width="81" height="18.2" rx=".8" ry=".8"/>
    <g>
      <path d="M87.6,428.3v-3.4h0c-.3,1.1-1.5,4.2-2.3,6.4h-.8c-.6-1.8-1.8-5.2-2.1-6.4h0v6.4h-.9v-7.1h1.4c.8,2.2,1.8,5,2,5.9h0c.2-.7,1.3-3.8,2.2-5.9h1.4v7.1h-.9s0-3,0-3Z"/>
      <path d="M90.6,428.9c0,1.1.5,1.8,1.4,1.8s1.1-.4,1.2-.8h.9c-.2.7-.8,1.5-2.2,1.5s-2.3-1.3-2.3-2.7.8-2.8,2.3-2.8,2.2,1.3,2.2,2.4,0,.3,0,.4h-3.6v.2h0ZM93.4,428.3c0-.8-.4-1.5-1.3-1.5s-1.3.6-1.4,1.5h2.7Z"/>
      <path d="M99.8,423.9v7.5h-.9v-.7c-.3.5-.8.9-1.6.9-1.3,0-2.1-1.1-2.1-2.7s.9-2.8,2.3-2.8,1.3.4,1.5.7v-2.9h.9-.1ZM96.1,428.8c0,1.2.6,1.9,1.4,1.9,1.2,0,1.5-.9,1.5-2s-.2-1.9-1.4-1.9-1.5.7-1.5,2Z"/>
      <path d="M101.3,423.9h.9v1.1h-.9v-1.1ZM101.3,426.2h.9v5.2h-.9v-5.2Z"/>
      <path d="M107.8,429.8c-.2.9-.8,1.7-2.1,1.7s-2.3-1-2.3-2.7.8-2.7,2.4-2.7,2,1.1,2.1,1.7h-.9c0-.5-.5-1-1.2-1s-1.4.8-1.4,2,.5,2,1.4,2,1-.3,1.2-1h.9,0Z"/>
      <path d="M112.8,430.2v1.1h-.9v-.7c-.2.3-.6.8-1.6.8s-1.7-.8-1.7-1.6c0-1.2.9-1.7,2.4-1.7h.9v-.4c0-.5,0-1-1.1-1s-1,.4-1.1.8h-.9c0-.7.5-1.5,2-1.5s2,.5,2,1.7v2.5h0ZM111.9,428.8h-.8c-1,0-1.6.3-1.6,1s.4.9,1,.9c1.2,0,1.4-.8,1.4-1.8v-.2h0Z"/>
      <path d="M114.3,431.4v-7.5h.9v7.5h-.9Z"/>
      <path d="M120.4,428.2v3.1h-.9v-7.1h2.8c1.5,0,2.2.8,2.2,1.9s-.5,1.5-1.2,1.7c.6.2,1.1.6,1.1,1.8v1.7h-.9v-1.7c0-1-.3-1.4-1.6-1.4h-1.5ZM120.4,427.5h1.5c1.1,0,1.6-.4,1.6-1.2s-.5-1.2-1.5-1.2h-1.6v2.4h0Z"/>
      <path d="M130.3,428.8c0,1.5-.9,2.7-2.4,2.7s-2.4-1.1-2.4-2.7.9-2.7,2.4-2.7,2.4,1.1,2.4,2.7ZM126.4,428.8c0,1.1.6,2,1.5,2s1.5-.8,1.5-2-.5-2-1.5-2-1.5.8-1.5,2Z"/>
      <path d="M135.9,428.8c0,1.5-.9,2.7-2.4,2.7s-2.4-1.1-2.4-2.7.9-2.7,2.4-2.7,2.4,1.1,2.4,2.7ZM132.1,428.8c0,1.1.6,2,1.5,2s1.5-.8,1.5-2-.5-2-1.5-2-1.5.8-1.5,2Z"/>
      <path d="M137.1,427.5v-1.3h.9v.8c.2-.5.7-.9,1.5-.9s1.2.4,1.4.9c.3-.5.8-.9,1.6-.9s1.6.5,1.6,1.9v3.4h-.9v-3.3c0-.6-.2-1.2-1-1.2s-1.2.6-1.2,1.6v3h-.9v-3.3c0-.7-.2-1.3-1-1.3s-1.2.7-1.2,1.7v2.9h-.9v-4h0Z"/>
    </g>
  </g>
  <g>
    <rect class="st9" x="72.3" y="494.5" width="81" height="18.2" rx=".8" ry=".8"/>
    <g>
      <path d="M83.8,506.3l-1.9-7.1h1c.6,2.3,1.3,5.3,1.4,6.1h0c.2-.9,1.2-4.3,1.6-6.1h.9c.4,1.6,1.4,5.2,1.6,6h0c.2-1.2,1.2-4.6,1.6-6h.9l-2.1,7.1h-1c-.4-1.6-1.3-5-1.5-5.9h0c-.2,1.1-1.1,4.2-1.6,5.9h-1,0Z"/>
      <path d="M95.2,505.2v1.1h-.9v-.7c-.2.3-.6.8-1.6.8s-1.7-.8-1.7-1.6c0-1.2.9-1.7,2.4-1.7h.9v-.4c0-.5,0-1-1.1-1s-1,.4-1.1.8h-.9c0-.7.5-1.5,2-1.5s2,.5,2,1.7v2.5h0ZM94.3,503.8h-.8c-1,0-1.6.3-1.6,1s.4.9,1,.9c1.2,0,1.4-.8,1.4-1.8v-.2h0Z"/>
      <path d="M96.7,498.8h.9v1.1h-.9v-1.1ZM96.7,501.1h.9v5.2h-.9v-5.2Z"/>
      <path d="M98.5,501.1h.9v-1.5h.9v1.5h1.1v.7h-1.1v3c0,.5,0,.8.6.8h.5v.7h-.8c-.8,0-1.2-.4-1.2-1.3v-3.2h-.9v-.7Z"/>
      <path d="M102.4,498.8h.9v1.1h-.9v-1.1ZM102.4,501.1h.9v5.2h-.9v-5.2Z"/>
      <path d="M104.8,502.4v-1.3h.9v.8c.2-.4.6-1,1.6-1s1.7.6,1.7,2v3.3h-.9v-3.2c0-.8-.3-1.3-1.1-1.3s-1.4.7-1.4,1.8v2.7h-.9v-3.9h.1Z"/>
      <path d="M114.8,505.8c0,1.7-.7,2.6-2.4,2.6s-2-.9-2.1-1.6h.9c.2.6.6.9,1.3.9,1.2,0,1.5-.7,1.5-1.9v-.4c-.3.6-.7.9-1.6.9-1.3,0-2.1-1-2.1-2.6s1-2.7,2.2-2.7,1.4.5,1.5.8v-.7h.8v4.7h0ZM111.1,503.7c0,1.1.6,1.8,1.4,1.8s1.4-.7,1.4-1.9-.3-1.9-1.4-1.9-1.4.8-1.4,1.9h0Z"/>
      <path d="M120,503.2v3.1h-.9v-7.1h2.8c1.5,0,2.2.8,2.2,1.9s-.5,1.5-1.2,1.7c.6.2,1.1.6,1.1,1.8v1.7h-.9v-1.7c0-1-.3-1.4-1.6-1.4h-1.5ZM120,502.4h1.5c1.1,0,1.6-.4,1.6-1.2s-.5-1.2-1.5-1.2h-1.6v2.4h0Z"/>
      <path d="M129.9,503.7c0,1.5-.9,2.7-2.4,2.7s-2.4-1.1-2.4-2.7.9-2.7,2.4-2.7,2.4,1.1,2.4,2.7ZM126,503.7c0,1.1.6,2,1.5,2s1.5-.8,1.5-2-.5-2-1.5-2-1.5.8-1.5,2Z"/>
      <path d="M135.6,503.7c0,1.5-.9,2.7-2.4,2.7s-2.4-1.1-2.4-2.7.9-2.7,2.4-2.7,2.4,1.1,2.4,2.7ZM131.7,503.7c0,1.1.6,2,1.5,2s1.5-.8,1.5-2-.5-2-1.5-2-1.5.8-1.5,2Z"/>
      <path d="M136.8,502.5v-1.3h.9v.8c.2-.5.7-.9,1.5-.9s1.2.4,1.4.9c.3-.5.8-.9,1.6-.9s1.6.5,1.6,1.9v3.4h-.9v-3.3c0-.6-.2-1.2-1-1.2s-1.2.6-1.2,1.6v3h-.9v-3.3c0-.7-.2-1.3-1-1.3s-1.2.7-1.2,1.7v2.9h-.9v-4h0Z"/>
    </g>
  </g>
  <g>
    <rect class="st9" x="72.3" y="587.6" width="81" height="18.2" rx=".8" ry=".8"/>
    <g>
      <path d="M82.5,594.1h-2.3v-.8h5.5v.8h-2.3v6.3h-.9s0-6.3,0-6.3Z"/>
      <path d="M86.6,592.9h.9v1.1h-.9v-1.1ZM86.6,595.3h.9v5.2h-.9v-5.2Z"/>
      <path d="M93.1,598.8c-.2.9-.8,1.7-2.1,1.7s-2.3-1-2.3-2.7.8-2.7,2.4-2.7,2,1.1,2.1,1.7h-.9c0-.5-.5-1-1.2-1s-1.4.8-1.4,2,.5,2,1.4,2,1-.3,1.2-1h.9,0Z"/>
      <path d="M95,597.7c.4-.5,1.6-1.7,2.3-2.5h1.1l-1.9,2,2.2,3.2h-1l-1.7-2.6-.8.8v1.8h-.9v-7.5h.9v4.8h-.2Z"/>
      <path d="M99.7,598c0,1.1.5,1.8,1.4,1.8s1.1-.4,1.2-.8h.9c-.2.7-.8,1.5-2.2,1.5s-2.3-1.3-2.3-2.7.8-2.8,2.3-2.8,2.2,1.3,2.2,2.4,0,.3,0,.4h-3.6v.2h0ZM102.5,597.4c0-.8-.4-1.5-1.3-1.5s-1.3.6-1.4,1.5h2.7Z"/>
      <path d="M103.9,595.3h.9v-1.5h.9v1.5h1.1v.7h-1.1v3c0,.5,0,.8.6.8h.5v.7h-.8c-.8,0-1.2-.4-1.2-1.3v-3.2h-.9v-.7Z"/>
      <path d="M116.2,598.4c-.3,1.2-1.2,2.1-2.8,2.1s-3.2-1.6-3.2-3.6,1.1-3.7,3.2-3.7,2.6,1,2.8,2.1h-.9c-.3-.8-.8-1.4-1.9-1.4s-2.2,1.4-2.2,2.9.6,2.9,2.2,2.9,1.6-.6,1.8-1.3h1Z"/>
      <path d="M121.8,597.8c0,1.5-.9,2.7-2.4,2.7s-2.4-1.1-2.4-2.7.9-2.7,2.4-2.7,2.4,1.1,2.4,2.7ZM117.9,597.8c0,1.1.6,2,1.5,2s1.5-.8,1.5-2-.5-2-1.5-2-1.5.8-1.5,2Z"/>
      <path d="M127.1,598.9v1.5h-.9v-.8c-.3.6-.8.9-1.6.9s-1.7-.4-1.7-1.9v-3.4h.9v3.2c0,.7.2,1.3,1.1,1.3s1.3-.5,1.3-1.8v-2.7h.9s0,3.7,0,3.7Z"/>
      <path d="M128.7,596.6v-1.3h.9v.8c.2-.4.6-1,1.6-1s1.7.6,1.7,2v3.3h-.9v-3.2c0-.8-.3-1.3-1.1-1.3s-1.4.7-1.4,1.8v2.7h-.9v-3.9h0Z"/>
      <path d="M133.7,595.3h.9v-1.5h.9v1.5h1.1v.7h-1.1v3c0,.5.1.8.6.8h.5v.7h-.8c-.8,0-1.2-.4-1.2-1.3v-3.2h-.9v-.7Z"/>
      <path d="M138.1,598c0,1.1.5,1.8,1.4,1.8s1.1-.4,1.2-.8h.9c-.2.7-.8,1.5-2.2,1.5s-2.3-1.3-2.3-2.7.8-2.8,2.3-2.8,2.2,1.3,2.2,2.4,0,.3,0,.4h-3.6v.2h.1ZM140.8,597.4c0-.8-.4-1.5-1.3-1.5s-1.3.6-1.4,1.5h2.7Z"/>
      <path d="M142.9,596.7v-1.4h.9v1.1c.3-.7.9-1.2,1.7-1.2v.9c-1.1,0-1.7.6-1.7,1.9v2.5h-.9v-3.8Z"/>
    </g>
  </g>
  <g>
    <rect class="st9" x="906.8" y="418.4" width="81" height="18.2" rx=".8" ry=".8"/>
    <g>
      <path d="M917,425h-2.3v-.8h5.5v.8h-2.3v6.3h-.9v-6.3Z"/>
      <path d="M921.1,423.8h.9v1.1h-.9v-1.1ZM921.1,426.1h.9v5.2h-.9v-5.2Z"/>
      <path d="M927.6,429.7c-.2.9-.8,1.7-2.1,1.7s-2.3-1-2.3-2.7.8-2.7,2.4-2.7,2,1.1,2.1,1.7h-.9c0-.5-.5-1-1.2-1s-1.4.8-1.4,2,.5,2,1.4,2,1-.3,1.2-1h.9-.1Z"/>
      <path d="M929.5,428.5c.4-.5,1.6-1.7,2.3-2.5h1.1l-1.9,2,2.2,3.2h-1l-1.7-2.6-.8.8v1.8h-.9v-7.5h.9v4.8h-.2,0Z"/>
      <path d="M934.2,428.8c0,1.1.5,1.8,1.4,1.8s1.1-.4,1.2-.8h.9c-.2.7-.8,1.5-2.2,1.5s-2.3-1.3-2.3-2.7.8-2.8,2.3-2.8,2.2,1.3,2.2,2.4,0,.3,0,.4h-3.6v.2h0ZM937,428.2c0-.8-.4-1.5-1.3-1.5s-1.3.6-1.4,1.5h2.7Z"/>
      <path d="M938.4,426.1h.9v-1.5h.9v1.5h1.1v.7h-1.1v3c0,.5,0,.8.6.8h.5v.7h-.8c-.8,0-1.2-.4-1.2-1.3v-3.2h-.9v-.7Z"/>
      <path d="M950.7,429.2c-.3,1.2-1.2,2.1-2.8,2.1s-3.2-1.6-3.2-3.6,1.1-3.7,3.2-3.7,2.6,1,2.8,2.1h-.9c-.3-.8-.8-1.4-1.9-1.4s-2.2,1.4-2.2,2.9.6,2.9,2.2,2.9,1.6-.6,1.8-1.3h1Z"/>
      <path d="M956.3,428.6c0,1.5-.9,2.7-2.4,2.7s-2.4-1.1-2.4-2.7.9-2.7,2.4-2.7,2.4,1.1,2.4,2.7ZM952.4,428.7c0,1.1.6,2,1.5,2s1.5-.8,1.5-2-.5-2-1.5-2-1.5.8-1.5,2Z"/>
      <path d="M961.6,429.7v1.5h-.9v-.8c-.3.6-.8.9-1.6.9s-1.7-.4-1.7-1.9v-3.4h.9v3.2c0,.7.2,1.3,1.1,1.3s1.3-.5,1.3-1.8v-2.7h.9v3.7h0Z"/>
      <path d="M963.2,427.4v-1.3h.9v.8c.2-.4.6-1,1.6-1s1.7.6,1.7,2v3.3h-.9v-3.2c0-.8-.3-1.3-1.1-1.3s-1.4.7-1.4,1.8v2.7h-.9v-3.9h.1Z"/>
      <path d="M968.2,426.1h.9v-1.5h.9v1.5h1.1v.7h-1.1v3c0,.5,0,.8.6.8h.5v.7h-.8c-.8,0-1.2-.4-1.2-1.3v-3.2h-.9v-.7Z"/>
      <path d="M972.6,428.8c0,1.1.5,1.8,1.4,1.8s1.1-.4,1.2-.8h.9c-.2.7-.8,1.5-2.2,1.5s-2.3-1.3-2.3-2.7.8-2.8,2.3-2.8,2.2,1.3,2.2,2.4,0,.3,0,.4h-3.6v.2h0ZM975.3,428.2c0-.8-.4-1.5-1.3-1.5s-1.3.6-1.4,1.5h2.7Z"/>
      <path d="M977.4,427.5v-1.4h.9v1.1c.3-.7.9-1.2,1.7-1.2v.9c-1.1,0-1.7.6-1.7,1.9v2.5h-.9v-3.8Z"/>
    </g>
  </g>
  <g>
    <rect class="st9" x="240.7" y="662.7" width="34.3" height="18.2" rx=".8" ry=".8"/>
    <g>
      <path d="M245.9,668.4h.9v3.5c.5-.5,2.3-2.3,3.4-3.5h1.2l-3,3,3.2,4.1h-1.1l-2.7-3.5-.9.8v2.7h-.9v-7.1h0Z"/>
      <path d="M252.4,668h.9v1.1h-.9v-1.1ZM252.4,670.3h.9v5.2h-.9v-5.2Z"/>
      <path d="M259.3,672.9c0,1.5-.9,2.7-2.4,2.7s-2.4-1.1-2.4-2.7.9-2.7,2.4-2.7,2.4,1.1,2.4,2.7ZM255.4,672.9c0,1.1.6,2,1.5,2s1.5-.8,1.5-2-.5-2-1.5-2-1.5.8-1.5,2Z"/>
      <path d="M260.9,674c.1.6.6.9,1.3.9s1.1-.3,1.1-.8-.2-.7-1.2-.9c-1.5-.4-1.8-.8-1.8-1.5s.5-1.5,1.9-1.5,1.9.8,1.9,1.5h-.9c0-.3-.3-.8-1.1-.8s-.9.3-.9.7.2.6,1.2.8c1.6.4,1.9.9,1.9,1.7s-.7,1.6-2,1.6-2-.7-2.1-1.6h.9-.2,0Z"/>
      <path d="M266.2,672.8c.4-.5,1.6-1.7,2.3-2.5h1.1l-1.9,2,2.2,3.2h-1l-1.7-2.6-.8.8v1.8h-.9v-7.5h.9v4.8h-.2Z"/>
    </g>
  </g>
  <g>
    <rect class="st9" x="788.1" y="175.5" width="81" height="18.2" rx=".8" ry=".8"/>
    <g>
      <path d="M797.3,186.3c.2.9.8,1.3,1.8,1.3s1.5-.5,1.5-1.2-.3-1.1-1.8-1.5c-1.7-.4-2.3-1-2.3-2s.8-1.9,2.4-1.9,2.4,1,2.5,1.9h-1c0-.6-.5-1.1-1.6-1.1s-1.3.4-1.3,1.1.4.9,1.6,1.2c2,.5,2.4,1.3,2.4,2.2s-.8,2-2.6,2-2.6-1-2.7-2.1h1.1,0Z"/>
      <path d="M802.2,183.1h.9v-1.5h.9v1.5h1.1v.7h-1.1v3c0,.5,0,.8.6.8h.5v.7h-.8c-.8,0-1.2-.4-1.2-1.3v-3.2h-.9v-.7Z"/>
      <path d="M809.9,187.2v1.1h-.9v-.7c-.2.3-.6.8-1.6.8s-1.7-.8-1.7-1.6c0-1.2.9-1.7,2.4-1.7h.9v-.4c0-.5,0-1-1.1-1s-1,.4-1.1.8h-.9c0-.7.5-1.5,2-1.5s2,.5,2,1.7v2.5h0ZM809,185.8h-.8c-1,0-1.6.3-1.6,1s.4.9,1,.9c1.2,0,1.4-.8,1.4-1.8v-.2h0Z"/>
      <path d="M810.7,183.1h.9v-1.5h.9v1.5h1.1v.7h-1.1v3c0,.5,0,.8.6.8h.5v.7h-.8c-.8,0-1.2-.4-1.2-1.3v-3.2h-.9v-.7Z"/>
      <path d="M814.6,180.8h.9v1.1h-.9v-1.1ZM814.6,183.1h.9v5.2h-.9v-5.2Z"/>
      <path d="M821.4,185.7c0,1.5-.9,2.7-2.4,2.7s-2.4-1.1-2.4-2.7.9-2.7,2.4-2.7,2.4,1.1,2.4,2.7ZM817.5,185.7c0,1.1.6,2,1.5,2s1.5-.8,1.5-2-.5-2-1.5-2-1.5.8-1.5,2Z"/>
      <path d="M822.6,184.4v-1.3h.9v.8c.2-.4.6-1,1.6-1s1.7.6,1.7,2v3.3h-.9v-3.2c0-.8-.3-1.3-1.1-1.3s-1.4.7-1.4,1.8v2.7h-.9v-3.9h.1Z"/>
      <path d="M837.2,185.3v-3.4h0c-.3,1.1-1.5,4.2-2.3,6.4h-.8c-.6-1.8-1.8-5.2-2.1-6.4h0v6.4h-.9v-7.1h1.4c.8,2.2,1.8,5,2,5.9h0c.2-.7,1.3-3.8,2.2-5.9h1.4v7.1h-.9v-3h0Z"/>
      <path d="M843.5,187.2v1.1h-.9v-.7c-.2.3-.6.8-1.6.8s-1.7-.8-1.7-1.6c0-1.2.9-1.7,2.4-1.7h.9v-.4c0-.5,0-1-1.1-1s-1,.4-1.1.8h-.9c0-.7.5-1.5,2-1.5s2,.5,2,1.7v2.5h0ZM842.6,185.8h-.8c-1,0-1.6.3-1.6,1s.4.9,1,.9c1.2,0,1.4-.8,1.4-1.8v-.2h0Z"/>
      <path d="M845.4,186.8c0,.6.6.9,1.3.9s1.1-.3,1.1-.8-.2-.7-1.2-.9c-1.5-.4-1.8-.8-1.8-1.5s.5-1.5,1.9-1.5,1.9.8,1.9,1.5h-.9c0-.3-.3-.8-1.1-.8s-.9.3-.9.7.2.6,1.2.8c1.6.4,1.9.9,1.9,1.7s-.7,1.6-2,1.6-2-.7-2.1-1.6h.9-.2Z"/>
      <path d="M849,183.1h.9v-1.5h.9v1.5h1.1v.7h-1.1v3c0,.5,0,.8.6.8h.5v.7h-.8c-.8,0-1.2-.4-1.2-1.3v-3.2h-.9v-.7Z"/>
      <path d="M853.4,185.9c0,1.1.5,1.8,1.4,1.8s1.1-.4,1.2-.8h.9c-.2.7-.8,1.5-2.2,1.5s-2.3-1.3-2.3-2.7.8-2.8,2.3-2.8,2.2,1.3,2.2,2.4,0,.3,0,.4h-3.6v.2h0ZM856.2,185.2c0-.8-.4-1.5-1.3-1.5s-1.3.6-1.4,1.5h2.7Z"/>
      <path d="M858.2,184.5v-1.4h.9v1.1c.3-.7.9-1.2,1.7-1.2v.9c-1.1,0-1.7.6-1.7,1.9v2.5h-.9v-3.8Z"/>
    </g>
  </g>
  <g>
    <rect class="st9" x="892.5" y="523.4" width="49.5" height="18.2" rx=".8" ry=".8"/>
    <g>
      <path d="M901,528h2.7c1.4,0,2.3.8,2.3,2.1s-1,2.1-2.4,2.1h-1.7v2.9h-.9v-7.1h0ZM902,531.4h1.6c1,0,1.5-.5,1.5-1.3s-.6-1.3-1.4-1.3h-1.7v2.6h0Z"/>
      <path d="M910.8,534v1.1h-.9v-.7c-.2.3-.6.8-1.6.8s-1.7-.8-1.7-1.6c0-1.2.9-1.7,2.4-1.7h.9v-.4c0-.5,0-1-1.1-1s-1,.4-1.1.8h-.9c0-.7.5-1.5,2-1.5s2,.5,2,1.7v2.5h0ZM909.9,532.6h-.8c-1,0-1.6.3-1.6,1s.4.9,1,.9c1.2,0,1.4-.8,1.4-1.8v-.2h0Z"/>
      <path d="M912.3,531.4v-1.4h.9v1.1c.3-.7.9-1.2,1.7-1.2v.9c-1.1,0-1.7.6-1.7,1.9v2.5h-.9v-3.8Z"/>
      <path d="M916.8,532.4c.4-.5,1.6-1.7,2.3-2.5h1.1l-1.9,2,2.2,3.2h-1l-1.7-2.6-.8.8v1.8h-.9v-7.5h.9v4.8h-.2,0Z"/>
      <path d="M921.1,527.7h.9v1.1h-.9v-1.1ZM921.1,530h.9v5.2h-.9v-5.2Z"/>
      <path d="M923.5,531.3v-1.3h.9v.8c.2-.4.6-1,1.6-1s1.7.6,1.7,2v3.3h-.9v-3.2c0-.8-.3-1.3-1.1-1.3s-1.4.7-1.4,1.8v2.7h-.9v-3.9h.1Z"/>
      <path d="M933.5,534.7c0,1.7-.7,2.6-2.4,2.6s-2-.9-2.1-1.6h.9c.2.6.6.9,1.3.9,1.2,0,1.5-.7,1.5-1.9v-.4c-.3.6-.7.9-1.6.9-1.3,0-2.1-1-2.1-2.6s1-2.7,2.2-2.7,1.4.5,1.5.8v-.7h.8v4.7h0ZM929.8,532.5c0,1.1.6,1.8,1.4,1.8s1.4-.7,1.4-1.9-.3-1.9-1.4-1.9-1.4.8-1.4,1.9h0Z"/>
    </g>
  </g>
  <g>
    <rect class="st9" x="1030.5" y="305.4" width="69.3" height="18.2" rx=".8" ry=".8"/>
    <g>
      <path d="M1040.4,311.1h2.7c1.5,0,2.2.8,2.2,1.8s-.5,1.4-1,1.5c.5.2,1.3.7,1.3,1.7s-1,2.1-2.4,2.1h-2.8v-7.1h0ZM1042.9,314c1,0,1.4-.4,1.4-1.1s-.4-1.1-1.3-1.1h-1.8v2.2h1.7ZM1041.3,317.4h1.8c.9,0,1.5-.4,1.5-1.3s-.5-1.3-1.7-1.3h-1.6v2.6h0Z"/>
      <path d="M1050.9,316.7v1.5h-.9v-.8c-.3.6-.8.9-1.6.9s-1.7-.4-1.7-1.9v-3.4h.9v3.2c0,.7.2,1.3,1.1,1.3s1.3-.5,1.3-1.8v-2.7h.9v3.7h0Z"/>
      <path d="M1052.8,316.7c0,.6.6.9,1.3.9s1.1-.3,1.1-.8-.2-.7-1.2-.9c-1.5-.4-1.8-.8-1.8-1.5s.5-1.5,1.9-1.5,1.9.8,1.9,1.5h-.9c0-.3-.3-.8-1.1-.8s-.9.3-.9.7.2.6,1.2.8c1.6.4,1.9.9,1.9,1.7s-.7,1.6-2,1.6-2-.7-2.1-1.6h.9-.2Z"/>
      <path d="M1060.3,316.2c.2.9.8,1.3,1.8,1.3s1.5-.5,1.5-1.2-.3-1.1-1.8-1.5c-1.7-.4-2.3-1-2.3-2s.8-1.9,2.4-1.9,2.4,1,2.5,1.9h-1c0-.6-.5-1.1-1.6-1.1s-1.3.4-1.3,1.1.4.9,1.6,1.2c2,.5,2.4,1.3,2.4,2.2s-.8,2-2.6,2-2.6-1-2.7-2.1h1.1Z"/>
      <path d="M1065.2,313h.9v-1.5h.9v1.5h1.1v.7h-1.1v3c0,.5,0,.8.6.8h.5v.7h-.8c-.8,0-1.2-.4-1.2-1.3v-3.2h-.9v-.7Z"/>
      <path d="M1072.9,317.1v1.1h-.9v-.7c-.2.3-.6.8-1.6.8s-1.7-.8-1.7-1.6c0-1.2.9-1.7,2.4-1.7h.9v-.4c0-.5,0-1-1.1-1s-1,.4-1.1.8h-.9c0-.7.5-1.5,2-1.5s2,.5,2,1.7v2.5h0ZM1072.1,315.7h-.8c-1,0-1.6.3-1.6,1s.4.9,1,.9c1.2,0,1.4-.8,1.4-1.8v-.2h0Z"/>
      <path d="M1073.7,313h.9v-1.5h.9v1.5h1.1v.7h-1.1v3c0,.5,0,.8.6.8h.5v.7h-.8c-.8,0-1.2-.4-1.2-1.3v-3.2h-.9v-.7Z"/>
      <path d="M1077.6,310.7h.9v1.1h-.9v-1.1ZM1077.6,313h.9v5.2h-.9v-5.2Z"/>
      <path d="M1084.5,315.6c0,1.5-.9,2.7-2.4,2.7s-2.4-1.1-2.4-2.7.9-2.7,2.4-2.7,2.4,1.1,2.4,2.7ZM1080.6,315.6c0,1.1.6,2,1.5,2s1.5-.8,1.5-2-.5-2-1.5-2-1.5.8-1.5,2Z"/>
      <path d="M1085.6,314.3v-1.3h.9v.8c.2-.4.6-1,1.6-1s1.7.6,1.7,2v3.3h-.9v-3.2c0-.8-.3-1.3-1.1-1.3s-1.4.7-1.4,1.8v2.7h-.9v-3.9h.1Z"/>
    </g>
  </g>
  <g>
    <rect class="st9" x="579.6" y="336.4" width="77.7" height="18.2" rx=".8" ry=".8"/>
    <g>
      <path d="M605.1,345.9h-3.6v2.5h3.9v.8h-4.9v-7.2h4.7v.8h-3.7v2.2h3.6v.8h0Z"/>
      <path d="M606.5,349.2v-7.6h.9v7.6h-.9Z"/>
      <path d="M609.5,346.8c0,1.1.5,1.8,1.4,1.8s1.1-.4,1.3-.8h.9c-.2.7-.8,1.6-2.2,1.6s-2.3-1.3-2.3-2.7.8-2.8,2.4-2.8,2.2,1.4,2.2,2.5,0,.3,0,.4h-3.7ZM612.3,346.1c0-.9-.4-1.6-1.3-1.6s-1.3.6-1.4,1.6h2.8,0Z"/>
      <path d="M614.8,344c.7,2.1,1.2,3.7,1.4,4.4h0c0-.6.7-2.1,1.5-4.4h.9l-1.9,5.2h-1l-1.8-5.2h1-.1Z"/>
      <path d="M623.2,348.1v1.1h-.9v-.7c-.2.3-.6.8-1.6.8s-1.8-.8-1.8-1.6c0-1.2.9-1.7,2.5-1.7h.9v-.4c0-.5,0-1-1.1-1s-1,.4-1.1.8h-.9c0-.7.5-1.6,2-1.5,1.3,0,2,.5,2,1.7v2.5h0ZM622.3,346.7h-.8c-1,0-1.6.3-1.6,1s.4.9,1,.9c1.3,0,1.4-.8,1.4-1.8v-.2h0Z"/>
      <path d="M624,344h.9v-1.5h.9v1.5h1.2v.7h-1.2v3.1c0,.5,0,.8.6.8h.5v.7h-.8c-.8,0-1.2-.4-1.2-1.3v-3.3h-.9v-.7h0Z"/>
      <path d="M632.4,346.6c0,1.5-.9,2.8-2.5,2.8s-2.4-1.2-2.4-2.7.9-2.7,2.5-2.7,2.4,1.1,2.4,2.7h0ZM628.5,346.6c0,1.1.6,2,1.5,2s1.5-.8,1.5-2-.5-2-1.5-2-1.5.8-1.5,2Z"/>
      <path d="M633.6,345.4v-1.4h.9v1.1c.3-.7.9-1.2,1.8-1.2v.9c-1.1,0-1.8.6-1.8,1.9v2.5h-.9v-3.8Z"/>
    </g>
  </g>
  <g>
    <rect class="st9" x="878.4" y="654.8" width="77.7" height="18.2" rx=".8" ry=".8"/>
    <g>
      <path d="M880.8,659.5h2.7c1.4,0,2.4.8,2.4,2.1s-1,2.1-2.4,2.1h-1.7v2.9h-1v-7.2h0ZM881.8,662.9h1.7c1,0,1.5-.5,1.5-1.3s-.6-1.3-1.4-1.3h-1.7v2.6h0Z"/>
      <path d="M890.7,665.5v1.1h-.9v-.7c-.2.3-.6.8-1.6.8s-1.8-.8-1.8-1.6c0-1.2.9-1.7,2.5-1.7h.9v-.4c0-.5,0-1-1.1-1s-1,.4-1.1.8h-.9c0-.7.5-1.6,2-1.5,1.3,0,2,.5,2,1.7v2.5h0ZM889.9,664.1h-.8c-1,0-1.6.3-1.6,1s.4.9,1,.9c1.3,0,1.4-.8,1.4-1.8v-.2h0Z"/>
      <path d="M892.3,662.8v-1.4h.9v1.1c.3-.7.9-1.2,1.8-1.2v.9c-1.1,0-1.8.6-1.8,1.9v2.5h-.9v-3.8Z"/>
      <path d="M896.8,663.9c.4-.5,1.6-1.7,2.3-2.5h1.1l-2,2,2.2,3.2h-1.1l-1.8-2.6-.8.8v1.9h-.9v-7.6h.9v4.8h0Z"/>
      <path d="M901.2,659.1h.9v1.1h-.9v-1.1ZM901.2,661.4h.9v5.2h-.9v-5.2Z"/>
      <path d="M903.6,662.7v-1.3h.9v.9c.2-.4.6-1,1.6-1s1.7.6,1.7,2v3.4h-.9v-3.2c0-.8-.3-1.3-1.1-1.3s-1.4.8-1.4,1.8v2.8h-.9v-4.1h.1Z"/>
      <path d="M913.8,666.2c0,1.7-.7,2.6-2.4,2.6s-2.1-.9-2.2-1.6h.9c.2.6.6.9,1.3.9,1.2,0,1.5-.8,1.5-2v-.4c-.3.6-.8.9-1.6.9-1.3,0-2.2-1-2.2-2.6s1-2.7,2.3-2.7,1.4.5,1.5.8v-.7h.9v4.7h0ZM910,664c0,1.1.6,1.9,1.4,1.9s1.5-.8,1.5-1.9-.3-1.9-1.4-1.9-1.5.8-1.5,1.9Z"/>
      <path d="M922.6,663.3h-3.6v2.5h3.9v.8h-4.9v-7.2h4.7v.8h-3.7v2.2h3.6v.8h0Z"/>
      <path d="M924,666.6v-7.6h.9v7.6h-.9Z"/>
      <path d="M927,664.2c0,1.1.5,1.8,1.4,1.8s1.1-.4,1.3-.8h.9c-.2.7-.8,1.6-2.2,1.6s-2.3-1.3-2.3-2.7.8-2.8,2.4-2.8,2.2,1.4,2.2,2.5,0,.3,0,.4h-3.7ZM929.7,663.5c0-.9-.4-1.6-1.3-1.6s-1.3.6-1.4,1.6h2.8,0Z"/>
      <path d="M932.2,661.4c.7,2.1,1.2,3.7,1.4,4.4h0c0-.6.7-2.1,1.5-4.4h.9l-1.9,5.2h-1l-1.8-5.2h1-.1Z"/>
      <path d="M940.7,665.5v1.1h-.9v-.7c-.2.3-.6.8-1.6.8s-1.8-.8-1.8-1.6c0-1.2.9-1.7,2.5-1.7h.9v-.4c0-.5,0-1-1.1-1s-1,.4-1.1.8h-.9c0-.7.5-1.6,2-1.5,1.3,0,2,.5,2,1.7v2.5h0ZM939.8,664.1h-.8c-1,0-1.6.3-1.6,1s.4.9,1,.9c1.3,0,1.4-.8,1.4-1.8v-.2h0Z"/>
      <path d="M941.5,661.4h.9v-1.5h.9v1.5h1.2v.7h-1.2v3.1c0,.5,0,.8.6.8h.5v.7h-.8c-.8,0-1.2-.4-1.2-1.3v-3.3h-.9v-.7Z"/>
      <path d="M949.9,664c0,1.5-.9,2.8-2.5,2.8s-2.4-1.2-2.4-2.7.9-2.7,2.5-2.7,2.4,1.1,2.4,2.7h0ZM946,664c0,1.1.6,2,1.5,2s1.5-.8,1.5-2-.5-2-1.5-2-1.5.8-1.5,2Z"/>
      <path d="M951.1,662.8v-1.4h.9v1.1c.3-.7.9-1.2,1.8-1.2v.9c-1.1,0-1.8.6-1.8,1.9v2.5h-.9v-3.8Z"/>
    </g>
  </g>
  <g>
    <rect class="st9" x="964" y="175.5" width="58" height="18.2" rx="1" ry="1"/>
    <g>
      <path d="M968.2,181.2h4.5v.8h-3.6v2.3h3.4v.8h-3.4v3.2h-.9v-7.1Z"/>
      <path d="M978.2,185.7c0,1.5-.9,2.7-2.4,2.7s-2.4-1.1-2.4-2.7.9-2.7,2.4-2.7,2.4,1.1,2.4,2.7ZM974.3,185.7c0,1.1.6,2,1.5,2s1.5-.8,1.5-2-.5-2-1.5-2-1.5.8-1.5,2Z"/>
      <path d="M983.9,185.7c0,1.5-.9,2.7-2.4,2.7s-2.4-1.1-2.4-2.7.9-2.7,2.4-2.7,2.4,1.1,2.4,2.7ZM980,185.7c0,1.1.6,2,1.5,2s1.5-.8,1.5-2-.5-2-1.5-2-1.5.8-1.5,2Z"/>
      <path d="M989.4,180.8v7.5h-.9v-.7c-.3.5-.8.9-1.6.9-1.3,0-2.1-1.1-2.1-2.6s.9-2.8,2.3-2.8,1.3.4,1.5.7v-2.8h.9v-.2h-.1ZM985.6,185.7c0,1.2.6,1.9,1.4,1.9,1.2,0,1.5-.9,1.5-2s-.2-1.9-1.4-1.9-1.5.7-1.5,2Z"/>
      <path d="M999.3,186.3c-.3,1.2-1.2,2.1-2.8,2.1s-3.2-1.6-3.2-3.6,1.1-3.7,3.2-3.7,2.6,1,2.8,2.1h-.9c-.3-.8-.8-1.4-1.9-1.4s-2.2,1.4-2.2,2.9.6,2.9,2.2,2.9,1.6-.6,1.8-1.3h1Z"/>
      <path d="M1004.9,185.7c0,1.5-.9,2.7-2.4,2.7s-2.4-1.1-2.4-2.7.9-2.7,2.4-2.7,2.4,1.1,2.4,2.7ZM1001,185.7c0,1.1.6,2,1.5,2s1.5-.8,1.5-2-.5-2-1.5-2-1.5.8-1.5,2Z"/>
      <path d="M1010.2,186.8v1.5h-.9v-.8c-.3.6-.8.9-1.6.9s-1.7-.4-1.7-1.9v-3.4h.9v3.2c0,.7.2,1.3,1.1,1.3s1.3-.5,1.3-1.8v-2.7h.9v3.7Z"/>
      <path d="M1011.8,184.5v-1.4h.9v1.1c.3-.7.9-1.1,1.7-1.2v.9c-1.1,0-1.7.6-1.7,1.9v2.5h-.9v-3.8Z"/>
      <path d="M1014.9,183.1h.9v-1.5h.9v1.5h1.1v.7h-1.1v3c0,.5,0,.8.6.8h.5v.7h-.8c-.8,0-1.2-.4-1.2-1.3v-3.2h-.9v-.7Z"/>
    </g>
  </g>
</svg>